<svg xmlns="http://www.w3.org/2000/svg" xmlns:xlink="http://www.w3.org/1999/xlink" preserveAspectRatio="xMidYMid" width="32" height="32" viewBox="0 0 32 32">
  <defs>
    <style>

      .cls-2 {
        fill: #4463b1;
        filter: url(#color-overlay-1);
      }
    </style>

    <filter id="color-overlay-1" filterUnits="userSpaceOnUse">
      <feFlood flood-color="#ebebeb" flood-opacity="1"/>
      <feComposite operator="in" in2="SourceGraphic"/>
      <feBlend mode="normal" in2="SourceGraphic" result="colorOverlay"/>
    </filter>
  </defs>
  <path d="M16.000,32.000 C7.164,32.000 -0.000,24.837 -0.000,16.000 C-0.000,7.164 7.164,0.000 16.000,0.000 C24.837,0.000 32.000,7.164 32.000,16.000 C32.000,24.837 24.837,32.000 16.000,32.000 ZM20.000,10.000 C20.000,10.000 22.000,10.000 22.000,10.000 C22.000,10.000 22.000,6.000 22.000,6.000 C22.000,6.000 22.000,6.000 18.126,6.000 C14.252,6.000 15.000,10.000 15.000,10.000 C15.000,10.000 15.000,13.000 15.000,13.000 C15.000,13.000 13.000,13.000 13.000,13.000 C13.000,13.000 13.000,17.000 13.000,17.000 C13.000,17.000 15.000,17.000 15.000,17.000 C15.000,17.000 15.000,26.000 15.000,26.000 C15.000,26.000 19.000,26.000 19.000,26.000 C19.000,26.000 19.000,17.000 19.000,17.000 C19.000,17.000 21.000,17.000 21.000,17.000 C21.000,17.000 22.000,13.000 22.000,13.000 C22.000,13.000 19.000,13.000 19.000,13.000 C19.000,13.000 19.000,11.820 19.000,11.000 C19.000,10.179 20.000,10.000 20.000,10.000 Z" id="path-1" class="cls-2" fill-rule="evenodd"/>
</svg>
