<svg xmlns="http://www.w3.org/2000/svg" xmlns:xlink="http://www.w3.org/1999/xlink" preserveAspectRatio="xMidYMid" width="32" height="32" viewBox="0 0 32 32">
  <defs>
    <style>

      .cls-2 {
        fill: #da4935;
        filter: url(#color-overlay-1);
      }
    </style>

    <filter id="color-overlay-1" filterUnits="userSpaceOnUse">
      <feFlood flood-color="#ebebeb" flood-opacity="1"/>
      <feComposite operator="in" in2="SourceGraphic"/>
      <feBlend mode="normal" in2="SourceGraphic" result="colorOverlay"/>
    </filter>
  </defs>
  <path d="M16.000,32.010 C15.429,32.010 14.865,31.977 14.309,31.919 C16.885,30.662 18.246,28.483 18.246,26.301 C18.246,23.854 16.879,22.649 15.373,21.338 C15.373,21.338 14.141,20.345 14.141,20.345 C13.765,20.026 13.252,19.601 13.252,18.821 C13.252,18.042 13.765,17.545 14.210,17.084 C15.646,15.915 17.083,14.674 17.083,12.051 C17.083,9.356 15.441,7.939 14.654,7.265 C14.654,7.265 16.775,7.265 16.775,7.265 C16.775,7.265 18.964,5.989 18.964,5.989 C18.964,5.989 11.918,5.989 11.918,5.989 C10.070,5.989 7.745,6.273 5.795,7.939 C4.323,9.250 3.605,11.058 3.605,12.689 C3.605,15.454 5.658,18.254 9.284,18.254 C9.626,18.254 10.002,18.218 10.379,18.183 C10.207,18.608 10.037,18.962 10.037,19.566 C10.037,20.664 10.583,21.338 11.062,21.976 C9.523,22.082 6.650,22.259 4.529,23.606 C3.800,24.054 3.259,24.577 2.859,25.122 C1.061,22.534 0.000,19.395 0.000,16.005 C0.000,7.166 7.163,0.000 16.000,0.000 C24.837,0.000 32.000,7.166 32.000,16.005 C32.000,24.844 24.837,32.010 16.000,32.010 ZM26.906,9.000 C26.906,9.000 23.906,9.000 23.906,9.000 C23.906,9.000 23.906,6.000 23.906,6.000 C23.906,6.000 21.906,6.000 21.906,6.000 C21.906,6.000 21.906,9.000 21.906,9.000 C21.906,9.000 18.906,9.000 18.906,9.000 C18.906,9.000 18.906,11.000 18.906,11.000 C18.906,11.000 21.906,11.000 21.906,11.000 C21.906,11.000 21.906,14.000 21.906,14.000 C21.906,14.000 23.906,14.000 23.906,14.000 C23.906,14.000 23.906,11.000 23.906,11.000 C23.906,11.000 26.906,11.000 26.906,11.000 C26.906,11.000 26.906,9.000 26.906,9.000 ZM6.615,10.951 C6.615,10.030 6.786,9.073 7.368,8.328 C7.916,7.620 8.873,7.159 9.762,7.159 C12.603,7.159 14.073,11.129 14.073,13.681 C14.073,14.319 14.004,15.454 13.219,16.269 C12.671,16.836 11.746,17.261 10.891,17.261 C7.949,17.261 6.615,13.326 6.615,10.951 ZM7.847,23.535 C9.284,23.039 11.131,22.967 11.439,22.967 C11.780,22.967 11.952,22.967 12.225,23.004 C14.826,24.918 15.954,25.875 15.954,27.683 C15.954,29.658 14.534,31.163 11.864,31.450 C9.229,30.745 6.863,29.393 4.949,27.561 C4.937,27.435 4.905,27.316 4.905,27.187 C4.905,24.670 7.095,23.819 7.847,23.535 Z" id="path-1" class="cls-2" fill-rule="evenodd"/>
</svg>
