<svg xmlns="http://www.w3.org/2000/svg" xmlns:xlink="http://www.w3.org/1999/xlink" preserveAspectRatio="xMidYMid" width="32" height="32" viewBox="0 0 32 32">
  <defs>
    <style>

      .cls-2 {
        fill: #005a87;
        filter: url(#color-overlay-1);
      }
    </style>

    <filter id="color-overlay-1" filterUnits="userSpaceOnUse">
      <feFlood flood-color="#ebebeb" flood-opacity="1"/>
      <feComposite operator="in" in2="SourceGraphic"/>
      <feBlend mode="normal" in2="SourceGraphic" result="colorOverlay"/>
    </filter>
  </defs>
  <path d="M16.000,32.000 C7.164,32.000 0.000,24.837 0.000,16.000 C0.000,7.164 7.164,0.000 16.000,0.000 C24.837,0.000 32.000,7.164 32.000,16.000 C32.000,24.837 24.837,32.000 16.000,32.000 ZM9.788,7.468 C9.467,7.156 9.083,6.999 8.634,6.999 C8.185,6.999 7.802,7.153 7.484,7.459 C7.166,7.766 7.008,8.135 7.008,8.568 C7.008,9.018 7.168,9.402 7.489,9.717 C7.810,10.032 8.198,10.190 8.653,10.190 C9.095,10.190 9.475,10.035 9.793,9.726 C10.111,9.417 10.270,9.043 10.270,8.604 C10.270,8.160 10.109,7.781 9.788,7.468 ZM10.275,10.993 C10.275,10.993 7.000,10.993 7.000,10.993 C7.000,10.993 7.000,23.000 7.000,23.000 C7.000,23.000 10.275,23.000 10.275,23.000 C10.275,23.000 10.275,10.993 10.275,10.993 ZM25.000,15.438 C25.000,14.018 24.510,12.944 23.649,12.219 C22.624,11.365 21.614,10.938 20.145,10.938 C19.428,10.938 18.964,11.053 18.279,11.285 C17.595,11.516 16.848,12.003 16.005,12.594 C16.005,12.594 16.005,10.993 16.005,10.993 C16.005,10.993 12.730,10.993 12.730,10.993 C12.730,10.993 12.730,23.000 12.730,23.000 C12.730,23.000 15.988,22.998 15.988,22.998 C15.988,22.998 15.988,18.640 15.988,18.640 C15.988,17.357 16.042,16.524 16.151,16.138 C16.359,15.398 16.733,14.819 17.272,14.400 C17.811,13.981 18.456,13.772 19.208,13.772 C19.788,13.772 20.275,13.898 20.669,14.151 C21.063,14.404 21.339,14.772 21.498,15.255 C21.656,15.739 21.736,16.715 21.736,18.188 C21.736,18.188 21.736,22.998 21.736,22.998 C21.736,22.998 25.000,22.998 25.000,22.998 C25.000,22.998 25.000,15.438 25.000,15.438 Z" id="path-1" class="cls-2" fill-rule="evenodd"/>
</svg>
