<svg xmlns="http://www.w3.org/2000/svg" xmlns:xlink="http://www.w3.org/1999/xlink" preserveAspectRatio="xMidYMid" width="32" height="32" viewBox="0 0 32 32">
  <defs>
    <style>

      .cls-2 {
        fill: #4e9edc;
        filter: url(#color-overlay-1);
      }
    </style>

    <filter id="color-overlay-1" filterUnits="userSpaceOnUse">
      <feFlood flood-color="#ebebeb" flood-opacity="1"/>
      <feComposite operator="in" in2="SourceGraphic"/>
      <feBlend mode="normal" in2="SourceGraphic" result="colorOverlay"/>
    </filter>
  </defs>
  <path d="M16.000,32.000 C7.163,32.000 0.000,24.837 0.000,16.000 C0.000,7.164 7.163,0.000 16.000,0.000 C24.837,0.000 32.000,7.164 32.000,16.000 C32.000,24.837 24.837,32.000 16.000,32.000 ZM25.399,8.606 C24.686,9.069 23.895,9.405 23.054,9.587 C22.380,8.801 21.421,8.310 20.358,8.310 C18.319,8.310 16.665,10.119 16.665,12.350 C16.665,12.667 16.698,12.975 16.761,13.271 C13.691,13.102 10.970,11.494 9.148,9.050 C8.831,9.647 8.648,10.341 8.648,11.081 C8.648,12.482 9.300,13.719 10.291,14.443 C9.686,14.422 9.117,14.241 8.619,13.938 C8.618,13.955 8.618,13.971 8.618,13.989 C8.618,15.946 9.891,17.578 11.581,17.950 C11.271,18.042 10.945,18.092 10.608,18.092 C10.370,18.092 10.138,18.066 9.913,18.019 C10.383,19.624 11.747,20.792 13.363,20.824 C12.099,21.908 10.507,22.554 8.776,22.554 C8.478,22.554 8.184,22.535 7.895,22.497 C9.530,23.643 11.471,24.312 13.557,24.312 C20.350,24.312 24.065,18.157 24.065,12.818 C24.065,12.643 24.061,12.469 24.054,12.296 C24.776,11.726 25.402,11.015 25.897,10.205 C25.234,10.526 24.523,10.743 23.776,10.841 C24.538,10.341 25.124,9.549 25.399,8.606 Z" id="path-1" class="cls-2" fill-rule="evenodd"/>
</svg>
