<svg xmlns="http://www.w3.org/2000/svg" xmlns:xlink="http://www.w3.org/1999/xlink"><symbol  viewBox="0 0 96.1 96.1" id='fb'>
    <path d="M72 0H59.7c-14 0-23 9.3-23 23.7v10.9H24c-1 0-2 .8-2 2v15.7c0 1.1 1 2 2 2h12.6v39.9c0 1 .8 2 2 2h16.3c1 0 2-1 2-2v-40h14.6c1 0 2-.8 2-1.9V36.5a2 2 0 0 0-2-2H56.8v-9.2c0-4.4 1.1-6.7 6.9-6.7H72c1 0 2-.9 2-2V2c0-1.1-1-2-2-2z"></path>
  </symbol><symbol  viewBox="0 0 612 612" id='tw'>
    <path d="M612 116.3a250.7 250.7 0 0 1-72 19.7 126 126 0 0 0 55-69.4 253.1 253.1 0 0 1-79.8 30.5 125.6 125.6 0 0 0-214 114.5A356.4 356.4 0 0 1 42.7 80.4 125.5 125.5 0 0 0 81.5 248c-20.6-.7-40-6.4-56.9-15.8v1.6c0 60.8 43.3 111.5 100.7 123a127.2 127.2 0 0 1-56.7 2.1c16 50 62.3 86.2 117.3 87.2A251.9 251.9 0 0 1 0 498.1a354.9 354.9 0 0 0 192.4 56.5c231 0 357.2-191.3 357.2-357.2l-.4-16.3c24.7-17.6 46-39.7 62.8-64.8z"></path>
  </symbol><symbol  viewBox="0 0 430.1 430.1" id='ln'>
    <path d="M430.1 261.5v159H338V272.3c0-37.3-13.3-62.7-46.7-62.7-25.4 0-40.6 17.1-47.3 33.7a63 63 0 0 0-3 22.5v154.9h-92.3s1.3-251.3 0-277.4H241v39.3l-.6 1h.6v-1c12.2-18.8 34-45.8 83-45.8 60.7 0 106.2 39.7 106.2 124.8zm-378-252C20.7 9.6 0 30.4 0 57.6c0 26.6 20 47.9 51 47.9h.6c32.1 0 52.1-21.3 52.1-48-.6-27.1-20-47.8-51.5-47.8zm-46.6 411h92.2V143.3H5.5v277.4z"></path>
  </symbol><symbol  viewBox="0 0 430.1 430.1" id='vim'>
    <path d="M367.2 28.8c-59.8-2-100.2 31.5-121.4 100.6 11-4.5 21.5-6.7 31.9-6.7 21.8 0 31.4 12.2 28.8 36.7-1.2 14.9-10.9 36.5-28.8 64.9-18 28.4-31.6 42.6-40.5 42.6-11.6 0-22.2-22-31.9-65.8-3.2-13-9-45.8-17.3-98.8-7.8-49-28.3-72-61.7-68.7-14.1 1.3-35.3 14.2-63.6 38.7A5617 5617 0 0 1 0 128.5l20.2 26C39.5 141 50.8 134.4 54 134.4c14.8 0 28.6 23.2 41.4 69.6l34.8 127.8c17.2 46.5 38.5 69.7 63.5 69.7 40.5 0 90-38 148.5-114.2C398.7 214.3 428 157 430 115c2.6-56.1-18.3-84.9-62.7-86.1z"></path>
  </symbol><symbol  viewBox="0 0 430.1 430.1" id='be'>
    <path d="M388.4 119.1H280.7V92.3h107.7v26.8zM209 229a70.8 70.8 0 0 1 10.4 39.2 78 78 0 0 1-30.8 63.7 73.2 73.2 0 0 1-30.2 13.5 186.7 186.7 0 0 1-37.8 3.6H0V81.2h129.3c32.5.6 55.6 10 69.3 28.6a68.1 68.1 0 0 1 12.2 40.8c0 16.4-4.1 29.5-12.4 39.4a63.1 63.1 0 0 1-20.3 15.3 59 59 0 0 1 30.8 23.6zM61.7 186.8h56.7c11.6 0 21-2.3 28.2-6.7 7.3-4.4 10.9-12.2 10.9-23.5 0-12.5-4.8-20.7-14.4-24.7a99.8 99.8 0 0 0-31.6-4.2H61.7v59zM163 264.3c0-14-5.7-23.5-17-28.7a67 67 0 0 0-26.8-4.5H61.7v71.3h56.6c11.6 0 20.6-1.5 27-4.7 11.8-5.8 17.7-17 17.7-33.4zm265.4-43.6c1.3 8.8 2 21.5 1.7 38.1H290.5c.8 19.3 7.4 32.7 20 40.4a50.5 50.5 0 0 0 27.7 7.2 42 42 0 0 0 27.8-8.8c3.9-3 7.3-7.5 10.3-13.1h51.1a62.3 62.3 0 0 1-18.5 34.6c-17.2 18.7-41.2 28-72.1 28-25.6 0-48-7.8-67.6-23.6-19.4-15.7-29.2-41.3-29.2-76.8 0-33.2 8.8-58.7 26.4-76.4a92.5 92.5 0 0 1 68.6-26.6c16.6 0 31.6 3 45 9a77.6 77.6 0 0 1 33.1 28.4 94.6 94.6 0 0 1 15.3 39.6zm-50.3 5a41.9 41.9 0 0 0-13.4-30.3 43.8 43.8 0 0 0-29.7-10.3 39.7 39.7 0 0 0-30 11 51.7 51.7 0 0 0-13.3 29.6H378z"></path>
  </symbol></svg>