<svg preserveAspectRatio="xMidYMid meet" data-bbox="18 59 164 82" viewBox="18 59 164 82" height="200" width="200" xmlns="http://www.w3.org/2000/svg" data-type="color" role="img" aria-labelledby="svgcid--z7yzycmwg5g3"><title id="svgcid--z7yzycmwg5g3"></title>
    <g>
        <path fill="#009B3A" d="M182 59v82H18V59h164z" data-color="1"></path>
        <path fill="#FEDF00" d="M99.948 130.993L51.292 99.999l48.656-30.992 48.678 30.992-48.678 30.994z" data-color="2"></path>
        <path d="M120.43 99.999c0 .991-.07 1.966-.207 2.919-.075.525-1.918-.897-2.032-.386-.126.566 1.472 3.063 1.3 3.61-2.61 8.299-10.368 14.318-19.534 14.318-11.305 0-20.47-9.16-20.47-20.462 0-1.77.225-3.488.648-5.127.155-.599 2.076-.931 2.282-1.507.166-.464-1.392-1.177-1.194-1.625 3.176-7.186 10.369-12.202 18.734-12.202 11.308.002 20.473 9.163 20.473 20.462z" fill="#002776" data-color="3"></path>
        <path d="M81.225 91.742a20.248 20.248 0 0 0-1.09 3.13c1.329-.289 21.957-4.465 39.356 11.27.327-1.041.572-2.118.73-3.225-16.716-14.37-36.241-11.649-38.996-11.175z" fill="#FFFFFF" data-color="4"></path>
        <path d="M82.42 92.071c.136 0 .262.025.373.071a.84.84 0 0 1 .287.199.91.91 0 0 1 .182.31c.044.122.065.256.065.404 0 .145-.021.279-.063.398a.895.895 0 0 1-.182.312.789.789 0 0 1-.285.199.956.956 0 0 1-.377.071.956.956 0 0 1-.377-.071.795.795 0 0 1-.289-.199.915.915 0 0 1-.184-.31 1.224 1.224 0 0 1-.063-.4c0-.149.021-.283.065-.404a.822.822 0 0 1 .471-.509.993.993 0 0 1 .377-.071zm-.004 1.657a.492.492 0 0 0 .396-.188.682.682 0 0 0 .107-.214.997.997 0 0 0 .035-.27.92.92 0 0 0-.035-.272.603.603 0 0 0-.105-.214.481.481 0 0 0-.393-.188.531.531 0 0 0-.226.048.535.535 0 0 0-.172.138.682.682 0 0 0-.107.214.94.94 0 0 0-.038.274c0 .098.013.189.038.27a.682.682 0 0 0 .107.214.5.5 0 0 0 .393.188z" fill="#009B3A" data-color="1"></path>
        <path d="M85.77 93.753l-.39.017-.189-.465a.523.523 0 0 0-.063-.111.355.355 0 0 0-.187-.136.394.394 0 0 0-.122-.013l-.352.015.034.752-.363.017-.088-1.898.842-.04a1.65 1.65 0 0 1 .199 0c.059.002.115.01.168.025.05.013.096.034.138.059a.459.459 0 0 1 .111.105.555.555 0 0 1 .105.318.486.486 0 0 1-.09.331.542.542 0 0 1-.293.182v.004a.406.406 0 0 1 .189.117.91.91 0 0 1 .138.228l.213.493zm-1.316-.991l.442-.019a.871.871 0 0 0 .166-.025.3.3 0 0 0 .109-.054.223.223 0 0 0 .063-.092.37.37 0 0 0 .015-.134c-.004-.094-.036-.163-.094-.205-.057-.042-.143-.061-.254-.054l-.474.021.027.562z" fill="#009B3A" data-color="1"></path>
        <path d="M86.567 91.773h.627c.329 0 .579.078.744.233.166.155.249.392.249.708 0 .641-.331.962-.994.962h-.627v-1.903zm.365 1.593h.26a.964.964 0 0 0 .304-.042.391.391 0 0 0 .187-.128c.086-.115.13-.277.13-.482 0-.199-.044-.354-.13-.465a.415.415 0 0 0-.187-.124.97.97 0 0 0-.304-.04h-.26v1.281z" fill="#009B3A" data-color="1"></path>
        <path d="M90.577 93.682l-1.451-.015.021-1.902 1.409.017-.004.31-1.044-.01-.006.465.977.01-.004.31-.975-.01-.006.505 1.086.013-.003.307z" fill="#009B3A" data-color="1"></path>
        <path d="M93.401 93.866l-.34-.017.038-.784.046-.746-.551 1.506-.334-.015-.405-1.555-.027.748-.04.784-.342-.017.094-1.898.524.025.377 1.498.524-1.452.526.025-.09 1.898z" fill="#009B3A" data-color="1"></path>
        <path d="M96.937 94.413l-1.31-.186.245-1.718 1.272.182-.04.281-.943-.134-.061.419.88.126-.04.281-.88-.126-.065.457.981.14-.039.278z" fill="#009B3A" data-color="1"></path>
        <path d="M99.82 93.11l.698.207c.075.023.143.046.203.071a.884.884 0 0 1 .159.086.53.53 0 0 1 .115.111.42.42 0 0 1 .071.149.478.478 0 0 1 .025.17.772.772 0 0 1-.029.174.677.677 0 0 1-.124.241.478.478 0 0 1-.191.145.649.649 0 0 1-.26.044c-.096 0-.203-.019-.319-.052l-.34-.101-.203.681-.348-.103.543-1.823zm.094.96l.239.071.069.019a.39.39 0 0 0 .065.017.512.512 0 0 0 .157.023.244.244 0 0 0 .117-.025.223.223 0 0 0 .086-.073.472.472 0 0 0 .055-.117.323.323 0 0 0 .006-.172.207.207 0 0 0-.081-.123.57.57 0 0 0-.126-.061c-.055-.019-.115-.04-.182-.059l-.233-.071-.172.571z" fill="#009B3A" data-color="1"></path>
        <path d="M103.197 96.093l-.371-.124-.006-.503a.572.572 0 0 0-.017-.126.348.348 0 0 0-.048-.109.32.32 0 0 0-.078-.086.374.374 0 0 0-.107-.057l-.338-.113-.239.712-.344-.115.606-1.802.801.268c.067.023.128.046.184.071a.835.835 0 0 1 .147.086.445.445 0 0 1 .172.243.553.553 0 0 1-.015.335.49.49 0 0 1-.205.274.56.56 0 0 1-.34.065l-.002.002a.396.396 0 0 1 .134.178.9.9 0 0 1 .046.262l.02.539zm-.868-1.399l.419.142a.87.87 0 0 0 .161.036c.048.006.088.002.124-.01s.067-.034.09-.065a.368.368 0 0 0 .063-.117c.029-.09.025-.166-.013-.226-.038-.059-.111-.107-.218-.142l-.447-.151-.179.533z" fill="#009B3A" data-color="1"></path>
        <path d="M105.452 94.826a.96.96 0 0 1 .331.191.84.84 0 0 1 .272.637c.002.128-.023.262-.071.402a1.214 1.214 0 0 1-.193.356.956.956 0 0 1-.274.233.83.83 0 0 1-.335.094.96.96 0 0 1-.38-.059.951.951 0 0 1-.333-.191.829.829 0 0 1-.277-.639c0-.128.025-.26.073-.398.048-.14.113-.26.195-.36a.824.824 0 0 1 .615-.322.919.919 0 0 1 .377.056zm-.551 1.563a.52.52 0 0 0 .231.027.463.463 0 0 0 .205-.075.6.6 0 0 0 .172-.166.973.973 0 0 0 .124-.243.92.92 0 0 0 .057-.27.618.618 0 0 0-.029-.235.481.481 0 0 0-.306-.308.489.489 0 0 0-.439.046.629.629 0 0 0-.172.163 1.04 1.04 0 0 0-.181.515.614.614 0 0 0 .032.237.482.482 0 0 0 .306.309z" fill="#009B3A" data-color="1"></path>
        <path d="M107.102 97.583a1.01 1.01 0 0 1-.314-.212.821.821 0 0 1-.235-.653c.008-.13.044-.264.105-.402.059-.134.13-.247.218-.342a.847.847 0 0 1 .289-.212.8.8 0 0 1 .344-.069.965.965 0 0 1 .381.09c.107.046.199.103.277.17.076.067.136.14.181.22.044.08.069.166.077.256s-.002.18-.031.274l-.333-.147c.017-.048.021-.096.017-.145a.363.363 0 0 0-.046-.134.464.464 0 0 0-.103-.117.75.75 0 0 0-.16-.094.539.539 0 0 0-.224-.048.471.471 0 0 0-.208.05.658.658 0 0 0-.187.151c-.057.065-.107.149-.151.247s-.071.193-.08.281a.632.632 0 0 0 .017.237.481.481 0 0 0 .107.189.57.57 0 0 0 .193.132.724.724 0 0 0 .281.069.489.489 0 0 0 .247-.054l.094-.216-.392-.174.113-.26.719.316-.4.911-.212-.092.019-.174c-.086.034-.178.046-.277.04s-.206-.035-.326-.088z" fill="#009B3A" data-color="1"></path>
        <path d="M110.035 99.008l-.344-.186.082-.497a.538.538 0 0 0 .004-.126.3.3 0 0 0-.027-.117.313.313 0 0 0-.061-.096.326.326 0 0 0-.097-.075l-.31-.17-.361.658-.321-.174.914-1.668.74.406c.063.034.119.067.17.103.05.034.094.069.13.109a.448.448 0 0 1 .128.271.569.569 0 0 1-.075.327.486.486 0 0 1-.249.235.55.55 0 0 1-.346.004l-.002.002a.411.411 0 0 1 .101.199.906.906 0 0 1 0 .266l-.076.529zm-.61-1.53l.39.212a.744.744 0 0 0 .153.067.266.266 0 0 0 .124.008.188.188 0 0 0 .099-.046.331.331 0 0 0 .082-.105c.046-.084.055-.159.027-.224-.027-.067-.09-.126-.189-.18l-.413-.226-.273.494z" fill="#009B3A" data-color="1"></path>
        <path d="M112.138 100.095l-1.26-.719.941-1.651 1.224.698-.155.268-.906-.515-.231.402.847.484-.153.27-.849-.484-.25.44.943.538-.151.269z" fill="#009B3A" data-color="1"></path>
        <path d="M113.63 101.061c-.22-.149-.356-.308-.411-.48-.052-.172-.025-.35.084-.534l.291.195a.362.362 0 0 0-.029.308.486.486 0 0 0 .086.138.683.683 0 0 0 .136.119.645.645 0 0 0 .153.08.374.374 0 0 0 .136.029.228.228 0 0 0 .115-.023.234.234 0 0 0 .088-.078.168.168 0 0 0 .031-.096.262.262 0 0 0-.025-.105.605.605 0 0 0-.08-.119c-.036-.044-.078-.092-.126-.147a8.576 8.576 0 0 1-.195-.22 1.018 1.018 0 0 1-.136-.201.498.498 0 0 1-.052-.195.402.402 0 0 1 .048-.203c.011-.019.019-.038.029-.057a.45.45 0 0 1 .204-.186.51.51 0 0 1 .21-.05c.078 0 .157.013.243.04.084.027.17.069.256.128.094.063.174.132.235.205a.69.69 0 0 1 .134.228.524.524 0 0 1 .025.239.576.576 0 0 1-.086.241l-.293-.197c.092-.172.036-.327-.17-.465a.595.595 0 0 0-.141-.073.39.39 0 0 0-.124-.023.209.209 0 0 0-.181.088.177.177 0 0 0-.031.086c0 .027.006.059.023.092a.565.565 0 0 0 .076.111c.033.042.075.09.128.145l.138.147c.044.048.084.096.122.147.036.048.065.098.09.147a.52.52 0 0 1 .048.151.478.478 0 0 1-.01.159.62.62 0 0 1-.082.172.507.507 0 0 1-.419.233c-.084.004-.172-.008-.264-.038s-.184-.077-.274-.138z" fill="#009B3A" data-color="1"></path>
        <path d="M115.737 102.45c-.218-.149-.354-.308-.409-.48-.055-.172-.025-.35.084-.534l.291.195a.357.357 0 0 0-.029.308.43.43 0 0 0 .084.138c.04.044.084.084.138.119a.756.756 0 0 0 .151.082c.05.017.096.027.138.027a.233.233 0 0 0 .115-.023.229.229 0 0 0 .086-.078.19.19 0 0 0 .034-.096.262.262 0 0 0-.025-.105c-.019-.036-.044-.075-.08-.119s-.078-.092-.126-.147a8.576 8.576 0 0 1-.195-.22 1.064 1.064 0 0 1-.136-.201.49.49 0 0 1-.052-.195.402.402 0 0 1 .048-.203c.008-.019.019-.038.029-.057.011-.017.023-.036.038-.052a.473.473 0 0 1 .376-.182.714.714 0 0 1 .243.038 1.165 1.165 0 0 1 .491.333.69.69 0 0 1 .134.228c.025.078.034.159.025.239a.605.605 0 0 1-.086.241l-.293-.197c.092-.172.036-.327-.17-.465a.789.789 0 0 0-.14-.073.401.401 0 0 0-.126-.023.235.235 0 0 0-.103.021.211.211 0 0 0-.076.067.184.184 0 0 0-.031.086c0 .029.006.059.023.092a.603.603 0 0 0 .075.111c.031.042.075.09.126.145l.14.147a1.484 1.484 0 0 1 .212.294.46.46 0 0 1 .036.31.538.538 0 0 1-.08.172.497.497 0 0 1-.184.17.546.546 0 0 1-.235.065.785.785 0 0 1-.264-.04 1.174 1.174 0 0 1-.277-.138z" fill="#009B3A" data-color="1"></path>
        <path d="M118.789 102.316c.117.073.21.159.281.258a.86.86 0 0 1 .129.681c-.027.126-.08.251-.157.377a1.247 1.247 0 0 1-.264.306.902.902 0 0 1-.319.168.77.77 0 0 1-.348.021c-.121-.019-.241-.065-.358-.138s-.214-.159-.283-.26a.789.789 0 0 1-.14-.323.876.876 0 0 1 .006-.36 1.24 1.24 0 0 1 .157-.373c.078-.126.168-.228.268-.308a.824.824 0 0 1 .669-.185.983.983 0 0 1 .359.136zm-.876 1.408a.498.498 0 0 0 .436.046.625.625 0 0 0 .203-.124 1.033 1.033 0 0 0 .287-.463.666.666 0 0 0 .023-.235.462.462 0 0 0-.235-.366.513.513 0 0 0-.218-.08.49.49 0 0 0-.218.029.625.625 0 0 0-.203.124.928.928 0 0 0-.176.214.892.892 0 0 0-.111.249.64.64 0 0 0-.021.239.492.492 0 0 0 .233.367z" fill="#009B3A" data-color="1"></path>
        <path fill="#FFFFFF" d="M106.333 92.773l.195.595h.627l-.508.368.193.595-.507-.368-.505.368.193-.595-.508-.368h.627l.193-.595z" data-color="4"></path>
        <path fill="#FFFFFF" d="M105.534 98.26l.151.465h.491l-.397.289.151.467-.396-.289-.398.289.151-.467-.396-.289h.49l.153-.465z" data-color="4"></path>
        <path fill="#FFFFFF" d="M99.958 102.551l.17.517h.545l-.442.321.169.518-.442-.321-.44.321.167-.518-.44-.321h.545l.168-.517z" data-color="4"></path>
        <path fill="#FFFFFF" d="M92.181 100.018l.178.547h.576l-.467.339.178.549-.465-.339-.468.339.179-.549-.466-.339h.577l.178-.547z" data-color="4"></path>
        <path fill="#FFFFFF" d="M85.039 104.024l.197.607h.639l-.518.375.199.608-.517-.375-.518.375.197-.608-.516-.375h.64l.197-.607z" data-color="4"></path>
        <path fill="#FFFFFF" d="M82.504 105.949l.178.547h.577l-.465.338.176.546-.466-.337-.465.337.178-.546-.465-.338h.576l.176-.547z" data-color="4"></path>
        <path fill="#FFFFFF" d="M91.753 110.029l.193.593h.625l-.506.366.193.595-.505-.368-.505.368.193-.595-.505-.366h.624l.193-.593z" data-color="4"></path>
        <path fill="#FFFFFF" d="M88.72 108.373l.142.44h.464l-.376.271.143.44-.373-.273-.373.273.142-.44-.373-.271h.461l.143-.44z" data-color="4"></path>
        <path fill="#FFFFFF" d="M89.305 106.251l.161.497h.524l-.423.306.161.498-.423-.308-.422.308.162-.498-.424-.306h.522l.162-.497z" data-color="4"></path>
        <path fill="#FFFFFF" d="M87.057 103.156l.116.35h.367l-.298.216.113.348-.298-.216-.295.216.113-.348-.298-.216h.367l.113-.35z" data-color="4"></path>
        <path fill="#FFFFFF" d="M83.221 95.297l.218.673h.705l-.571.413.218.672-.57-.415-.572.415.218-.672-.57-.413h.706l.218-.673z" data-color="4"></path>
        <path fill="#FFFFFF" d="M102.344 104.416l.167.517h.545l-.44.321.168.517-.44-.32-.441.32.168-.517-.44-.321h.545l.168-.517z" data-color="4"></path>
        <path fill="#FFFFFF" d="M99.977 108.359l.195.597h.629l-.51.371.196.597-.51-.369-.507.369.192-.597-.507-.371h.629l.193-.597z" data-color="4"></path>
        <path fill="#FFFFFF" d="M106.123 112.991l.187.572h.601l-.486.354.187.572-.489-.354-.486.354.186-.572-.486-.354h.602l.184-.572z" data-color="4"></path>
        <path fill="#FFFFFF" d="M114.32 106.379l.184.572h.602l-.486.354.186.572-.486-.354-.489.354.187-.572-.486-.354h.601l.187-.572z" data-color="4"></path>
        <path fill="#FFFFFF" d="M115.182 108.279l.161.499h.526l-.426.308.162.499-.423-.308-.426.308.163-.499-.425-.308h.526l.162-.499z" data-color="4"></path>
        <path fill="#FFFFFF" d="M117.196 106.712l.147.455h.48l-.388.28.149.455-.388-.281-.388.281.149-.455-.388-.28h.478l.149-.455z" data-color="4"></path>
        <path fill="#FFFFFF" d="M113.93 109.926l.161.499h.526l-.425.308.163.498-.425-.308-.425.308.163-.498-.426-.308h.526l.162-.499z" data-color="4"></path>
        <path fill="#FFFFFF" d="M110.253 112.526l.174.541h.568l-.459.333.176.538-.459-.333-.461.333.176-.538-.459-.333h.568l.176-.541z" data-color="4"></path>
        <path fill="#FFFFFF" d="M107.84 111.309l.149.457h.48l-.388.282.149.457-.39-.283-.388.283.149-.457-.39-.282h.482l.147-.457z" data-color="4"></path>
        <path fill="#FFFFFF" d="M110.14 110.67l.13.4h.421l-.342.245.13.4-.339-.247-.34.247.13-.4-.342-.245h.422l.13-.4z" data-color="4"></path>
        <path fill="#FFFFFF" d="M112.28 111.078l.13.401h.421l-.341.247.13.398-.34-.245-.34.245.13-.398-.341-.247h.421l.13-.401z" data-color="4"></path>
        <path fill="#FFFFFF" d="M110.198 114.795l.13.4h.422l-.342.248.13.4-.34-.247-.339.247.13-.4-.342-.248h.421l.13-.4z" data-color="4"></path>
        <path fill="#FFFFFF" d="M104.465 110.81l.147.455h.48l-.388.283.149.454-.388-.282-.388.282.149-.454-.388-.283h.478l.149-.455z" data-color="4"></path>
        <path fill="#FFFFFF" d="M99.977 115.73l.075.228h.239l-.195.141.076.226-.195-.141-.193.141.074-.226-.193-.141h.239l.073-.228z" data-color="4"></path>
        <path fill="#FFFFFF" d="M97.866 104.472l.151.465h.488l-.394.287.149.463-.394-.287-.394.287.151-.463-.396-.287h.488l.151-.465z" data-color="4"></path>
        <path fill="#FFFFFF" d="M98.931 106.079l.109.338h.354l-.285.207.109.337-.287-.207-.287.207.109-.337-.288-.207h.357l.109-.338z" data-color="4"></path>
    </g>
</svg>