<svg preserveAspectRatio="xMidYMid meet" data-bbox="46.5 18.5 107 163" viewBox="46.5 18.5 107 163" xmlns="http://www.w3.org/2000/svg" data-type="color" role="img" aria-labelledby="svgcid-j51l9owf2fx"><defs><style>#comp-kdpq8w8u svg [data-color="1"] {fill: rgb(29, 150, 144);}</style></defs><title id="svgcid-j51l9owf2fx"></title>
    <g>
        <path d="M153.5 172.4v3.1c0 3.3-2.7 6-6 6h-95c-3.3 0-6-2.7-6-6v-3.1c0-3.3 2.7-6 6-6h95.1c3.3 0 5.9 2.7 5.9 6z" fill="rgb(29, 150, 144)" data-color="1"></path>
        <path d="M140.2 140.9c5.4.8 7.2 9 7 12.1 0 0 .9 9.4-8.1 9.4H60.7c-9 0-8.1-9.4-8.1-9.4-.2-3.1 1.5-11.3 7-12.1 5.4-.8 11.1-5.6 10.5-10.3-.7-4.6 2.4-6.5 2.4-6.5 13.9-10.9 4.3-64.7 4.3-64.7H60.1l-5.2-40.9h15.5l1.6 12h7.5v-12h15v12h10v-12h16v12h7.1l1.6-12h15.5l-5.2 40.9H123s-9.7 53.8 4.3 64.7c0 0 3.1 1.8 2.4 6.5-.6 4.8 5.1 9.7 10.5 10.3z" fill="rgb(29, 150, 144)" data-color="1"></path>
    </g>
</svg>