<svg preserveAspectRatio="xMidYMid meet" id="comp-kevhuba7svgcontent" data-bbox="18 59 164 82" viewBox="18 59 164 82" height="200" width="200" xmlns="http://www.w3.org/2000/svg" data-type="color" role="img" aria-labelledby="comp-kevhuba7-svgtitle"><title id="comp-kevhuba7-svgtitle"></title>
    <g>
        <path fill="#FFFFFF" d="M182 141H18v-7.688l3.009-6.418L18 120.475v-40.95l4.611-6.419L18 66.688V59h164v7.688l-5.326 6.418L182 79.525v40.95l-7.422 5.834 7.422 7.003V141z" data-color="1"></path>
        <path fill="#0A39B6" d="M182 66.688v12.838H18V66.688h164z" data-color="2"></path>
        <path fill="#0A39B6" d="M18 133.313v-12.838h164v12.838H18z" data-color="2"></path>
        <path d="M110.189 100l5.133-8.894h-10.269L100 82.354l-5.054 8.752H84.677L89.813 100l-5.135 8.894h10.269l5.054 8.752 5.054-8.752h10.269L110.189 100zm.247-6.072l-1.877 3.25-1.877-3.25h3.754zM106.931 100l-3.507 6.072h-6.848L93.071 100l3.505-6.072h6.848l3.507 6.072zM100 87.996l1.796 3.109h-3.591L100 87.996zm-10.434 5.932h3.753l-1.877 3.25-1.876-3.25zm0 12.144l1.875-3.25 1.877 3.25h-3.752zM100 112.004l-1.796-3.109h3.591L100 112.004zm8.559-9.182l1.877 3.25h-3.755l1.878-3.25z" fill="#0A39B6" data-color="2"></path>
    </g>
</svg>