<svg preserveAspectRatio="xMidYMid meet" data-bbox="40.905 32.5 118.19 135.001" viewBox="40.905 32.5 118.19 135.001" height="200" width="200" xmlns="http://www.w3.org/2000/svg" data-type="color" role="img" aria-labelledby="svgcid-2z7bg58ylptp"><defs><style>#comp-kdr0ave0 svg [data-color="1"] {fill: #1D9690;}
#comp-kdr0ave0 svg [data-color="3"] {fill: #94CBC8;}</style></defs><title id="svgcid-2z7bg58ylptp"></title>
    <g>
        <path d="M45.053 53.381c-2.876.675-4.671 3.511-4.011 6.335l.025.108c.724 3.078 3.847 4.978 6.986 4.242l8.503-1.995 71.412-16.756 22.53 96.209 8.597-2.019L134.036 32.5 45.053 53.381z" fill="rgb(29, 150, 144)" data-color="1"></path>
        <path d="M45.053 53.381c-2.876.675-4.671 3.511-4.011 6.335l.025.108c.724 3.078 3.847 4.978 6.986 4.242l8.503-1.995 71.412-16.756 22.53 96.209 8.597-2.019L134.036 32.5 45.053 53.381z" opacity=".15"></path>
        <path d="M155.535 140.289l-86.138 20.212L45.906 60.185c-.347-1.485.605-2.979 2.122-3.335l83.381-19.566 24.126 103.005z" fill="#FAFCFC" data-color="2"></path>
        <path d="M155.535 140.289l-86.138 20.212L45.906 60.185c-.347-1.485.605-2.979 2.122-3.335l83.381-19.566 24.126 103.005z" opacity=".2"></path>
        <path d="M154.88 143.012l-84.913 19.924L46.035 60.731c-.203-.853.347-1.71 1.22-1.916l83.326-19.553 24.299 103.75z" fill="#FAFCFC" data-color="2"></path>
        <path d="M57.423 58.42l-8.503 1.994c-3.138.737-7.13 2.489-7.854-.589L42.37 65.4l2.846 12.153 19.689 84.055 1.378 5.893 85.592-20.084-1.378-5.893-21.667-99.862L57.423 58.42z" fill="rgb(29, 150, 144)" data-color="1"></path>
        <path d="M103.975 127.998c-.19.06-.38.1-.6.15-.19.05-.39.1-.59.13-16.04 3.433-32.03-6.647-35.8-22.743-3.81-16.286 6.32-32.622 22.56-36.436 16.27-3.814 32.6 6.316 36.41 22.592 3.77 16.107-6.06 32.243-21.98 36.307z" fill="#FAFCFC" data-color="3"></path>
        <path d="M125.955 91.692c-3.81-16.276-20.14-26.406-36.41-22.592-16.24 3.814-26.37 20.15-22.56 36.436 3.77 16.096 19.76 26.176 35.8 22.743.2-.03.4-.08.59-.13.22-.05.41-.09.6-.15 15.92-4.065 25.75-20.201 21.98-36.307zm-1.31-.29l-10.39 2.432c-1.38-5.585-3.61-10.56-6.38-14.584 2.56-1.221 4.67-2.532 6.17-3.834 5.07 3.854 8.92 9.359 10.6 15.986zm-18.54-12.653c-3.61 1.622-8.01 3.103-12.68 4.234l-3.01-12.843c5.39-.94 11.14 2.483 15.69 8.609zm.71 1.011c2.7 3.914 4.92 8.819 6.28 14.344l-16.18 3.804-3.22-13.764c4.89-1.181 9.41-2.712 13.12-4.384zm-11.06 18.418l-16.18 3.794c-1.23-5.555-1.43-10.941-.75-15.646 4.08-.15 8.8-.791 13.71-1.912l3.22 13.764zm.27 1.162l3.1 13.253c-4.95 1.201-9.54 2.763-13.3 4.464-2.55-3.844-4.66-8.589-5.98-13.924l16.18-3.793zm1.16-.271l16.18-3.804c1.19 5.365 1.41 10.57.81 15.165-4.1.11-8.9.761-13.89 1.892l-3.1-13.253zm15.86-24.364c-1.44 1.201-3.44 2.412-5.86 3.554-3.2-4.374-7.01-7.467-10.93-8.769 6.1-.05 11.96 1.852 16.79 5.215zm-23.79-4.294l3.01 12.843c-4.7 1.071-9.29 1.702-13.25 1.852 1.34-7.528 4.98-13.154 10.24-14.695zm-5.54 2.022c-2.92 2.913-4.96 7.367-5.88 12.703-2.67.06-5.01-.13-6.83-.551 2.82-5.175 7.22-9.489 12.71-12.152zm-13.28 13.233c1.92.5 4.39.731 7.22.671-.7 4.835-.49 10.29.76 15.906l-10.39 2.442c-1.44-6.677-.43-13.313 2.41-19.019zm-2.13 20.18l10.38-2.442c1.33 5.395 3.46 10.23 6.09 14.164-2.63 1.271-4.76 2.613-6.26 3.954a29 29 0 0 1-10.21-15.676zm11.21 16.406c1.41-1.251 3.46-2.502 5.94-3.694 3.25 4.585 7.18 7.858 11.22 9.199a28.944 28.944 0 0 1-17.16-5.505zm7.02-4.184c3.64-1.652 8.11-3.163 12.87-4.314l3.13 13.353c-5.51.971-11.42-2.633-16-9.039zm17.16 8.769l-3.13-13.353c4.77-1.081 9.45-1.722 13.44-1.862-1.28 7.767-4.95 13.613-10.31 15.215zm5.52-2.022c3.03-3.003 5.11-7.678 5.98-13.233 2.77-.02 5.15.17 6.97.661a28.903 28.903 0 0 1-12.95 12.572zm13.51-13.664c-1.92-.541-4.44-.791-7.37-.761.61-4.695.37-9.97-.83-15.395l10.39-2.432c1.4 6.496.49 12.983-2.19 18.588z" fill="#FAFCFC" opacity=".4" data-color="2"></path>
        <path d="M124.649 91.402l-10.39 2.432c-1.38-5.585-3.61-10.56-6.38-14.584 2.56-1.221 4.67-2.532 6.17-3.834 5.07 3.854 8.92 9.359 10.6 15.986z" opacity=".18"></path>
        <path d="M122.729 111.151c-1.92-.541-4.44-.791-7.37-.761.61-4.695.37-9.97-.83-15.395l10.39-2.432c1.4 6.496.49 12.983-2.19 18.588z" opacity=".18"></path>
        <path d="M113.049 74.705c-1.44 1.201-3.44 2.412-5.86 3.554-3.2-4.374-7.01-7.467-10.93-8.769 6.1-.05 11.96 1.852 16.79 5.215z" opacity=".18"></path>
        <path d="M122.169 112.242a28.898 28.898 0 0 1-12.95 12.572c3.03-3.003 5.11-7.678 5.98-13.233 2.77-.019 5.15.171 6.97.661z" opacity=".18"></path>
        <path d="M113.099 94.104l-16.18 3.804-3.22-13.764c4.89-1.181 9.41-2.713 13.12-4.384 2.7 3.914 4.92 8.819 6.28 14.344z" opacity=".18"></path>
        <path d="M114.179 110.431c-4.1.11-8.9.761-13.89 1.892l-3.1-13.253 16.18-3.804c1.19 5.365 1.41 10.57.81 15.165z" opacity=".18"></path>
        <path d="M114.009 111.622c-1.28 7.768-4.95 13.613-10.31 15.215l-3.13-13.353c4.77-1.081 9.45-1.722 13.44-1.862z" opacity=".18"></path>
        <path d="M106.109 78.749c-3.61 1.622-8.01 3.103-12.68 4.234l-3.01-12.843c5.39-.94 11.14 2.483 15.69 8.609z" opacity=".18"></path>
    </g>
</svg>