<svg width="50" height="50" viewBox="0 0 50 50" fill="none" xmlns="http://www.w3.org/2000/svg">
<path d="M32 20.4881C31.4551 20.756 30.8528 20.9048 30.2218 20.9941C30.8528 20.6072 31.3403 19.9822 31.5698 19.2381C30.9962 19.5952 30.3365 19.8631 29.6195 20.0119C29.0459 19.3869 28.2715 19 27.3824 19C25.6902 19 24.3136 20.4286 24.3136 22.1846C24.3136 22.4227 24.3423 22.6905 24.3996 22.8989C21.8184 22.7798 19.5526 21.5298 18.0325 19.5952C17.7744 20.0417 17.631 20.6072 17.631 21.2024C17.631 22.3036 18.1759 23.2858 19.0076 23.8512C18.4914 23.8215 18.0325 23.7024 17.6023 23.4643V23.4941C17.6023 25.0417 18.6635 26.3215 20.0688 26.6191C19.8107 26.6787 19.5526 26.7382 19.2658 26.7382C19.065 26.7382 18.8642 26.7084 18.6922 26.6787C19.0937 27.9584 20.2122 28.8811 21.5602 28.8811C20.499 29.7442 19.1797 30.2501 17.7457 30.2501C17.4876 30.2501 17.2581 30.2501 17 30.2204C18.348 31.1132 19.9828 31.649 21.7036 31.649C27.3824 31.649 30.4799 26.7679 30.4799 22.5715C30.4799 22.4227 30.4799 22.3036 30.4799 22.1548C31.0535 21.7084 31.5698 21.1429 32 20.4881Z" fill="#0030DA"/>
<circle cx="25" cy="25" r="24.5" stroke="#0030DA"/>
</svg>
