<svg preserveAspectRatio="xMidYMid meet" id="comp-kevhuba3svgcontent" data-bbox="18 59 164 82" viewBox="18 59 164 82" height="200" width="200" xmlns="http://www.w3.org/2000/svg" data-type="color" role="img" aria-labelledby="comp-kevhuba3-svgtitle"><title id="comp-kevhuba3-svgtitle"></title>
    <g>
        <path fill="#FFFFFF" d="M179.255 73.86l-.631.838h.631l2.728 3.143v6.286l-2.519 1.257-.419 3.353 2.938 1.885v6.286l-2.099 1.466-.629 3.353 2.728 1.467v6.286l-1.679 1.047-.42 3.562 2.099 1.676v6.286l-1.889 1.467v3.352l1.889 1.466v6.287l-2.309 5.238H20.528l-2.519-5.238v-6.287l1.68-2.304v-2.305l-1.68-2.096v-5.446l1.68-2.724v-2.724l-1.68-1.257v-6.286l.841-1.467v-2.933l8.817-1.886 11.547-21.163h1.68l13.018-12.151h124.292l3.779 1.675v6.287l-2.728 2.304z" data-color="1"></path>
        <path fill="#B12233" d="M182 109.462v6.307H18v-6.307h164z" data-color="2"></path>
        <path fill="#B12233" d="M182 122.078v6.307H18v-6.307h164z" data-color="2"></path>
        <path fill="#B12233" d="M182 134.693V141H18v-6.307h164z" data-color="2"></path>
        <path fill="#B12233" d="M182 59H80.4l-28.753 6.307H182V59z" data-color="2"></path>
        <path fill="#B12233" d="M43.421 71.616l-8.553 6.306H182v-6.306H43.421z" data-color="2"></path>
        <path fill="#B12233" d="M38.797 90.538H182v-6.307H33.596l5.201 6.307z" data-color="2"></path>
        <path fill="#B12233" d="M80.4 103.153H182v-6.306H38.798l41.602 6.306z" data-color="2"></path>
        <path fill="#3C3B6D" d="M80.4 59v44.153H18V59h62.4z" data-color="3"></path>
        <path fill="#FFFFFF" d="M23.194 61.099l.578 1.775h1.87l-1.513 1.096.577 1.775-1.512-1.096-1.511 1.096.577-1.775-1.514-1.096h1.871l.577-1.775z" data-color="1"></path>
        <path fill="#FFFFFF" d="M75.204 61.099l.577 1.775h1.871l-1.514 1.096.58 1.775-1.514-1.096-1.512 1.096.578-1.775-1.512-1.096h1.869l.577-1.775z" data-color="1"></path>
        <path fill="#FFFFFF" d="M64.803 61.099l.578 1.775h1.868l-1.512 1.096.578 1.775-1.512-1.096-1.514 1.096.58-1.775-1.514-1.096h1.871l.577-1.775z" data-color="1"></path>
        <path fill="#FFFFFF" d="M54.4 61.099l.577 1.775h1.871l-1.512 1.096.577 1.775-1.513-1.096-1.512 1.096.577-1.775-1.511-1.096h1.868l.578-1.775z" data-color="1"></path>
        <path fill="#FFFFFF" d="M43.999 61.099l.577 1.775h1.869l-1.512 1.096.577 1.775-1.511-1.096-1.514 1.096.579-1.775-1.513-1.096h1.87l.578-1.775z" data-color="1"></path>
        <path fill="#FFFFFF" d="M33.595 61.099l.58 1.775h1.868l-1.511 1.096.577 1.775-1.514-1.096-1.511 1.096.577-1.775-1.512-1.096h1.869l.577-1.775z" data-color="1"></path>
        <path fill="#FFFFFF" d="M23.194 69.927l.578 1.774h1.87l-1.513 1.096.577 1.775-1.512-1.096-1.511 1.096.577-1.775-1.514-1.096h1.871l.577-1.774z" data-color="1"></path>
        <path fill="#FFFFFF" d="M75.204 69.927l.577 1.774h1.871l-1.514 1.096.58 1.775-1.514-1.096-1.512 1.096.578-1.775-1.512-1.096h1.869l.577-1.774z" data-color="1"></path>
        <path fill="#FFFFFF" d="M64.803 69.927l.578 1.774h1.868l-1.512 1.096.578 1.775-1.512-1.096-1.514 1.096.58-1.775-1.514-1.096h1.871l.577-1.774z" data-color="1"></path>
        <path fill="#FFFFFF" d="M54.4 69.927l.577 1.774h1.871l-1.512 1.096.577 1.775-1.513-1.096-1.512 1.096.577-1.775-1.511-1.096h1.868l.578-1.774z" data-color="1"></path>
        <path fill="#FFFFFF" d="M43.999 69.927l.577 1.774h1.869l-1.512 1.096.577 1.775-1.511-1.096-1.514 1.096.579-1.775-1.513-1.096h1.87l.578-1.774z" data-color="1"></path>
        <path fill="#FFFFFF" d="M33.595 69.927l.58 1.774h1.868l-1.511 1.096.577 1.775-1.514-1.096-1.511 1.096.577-1.775-1.512-1.096h1.869l.577-1.774z" data-color="1"></path>
        <path fill="#FFFFFF" d="M23.194 78.754l.578 1.775h1.87l-1.513 1.096.577 1.774-1.512-1.096-1.511 1.096.577-1.774-1.514-1.096h1.871l.577-1.775z" data-color="1"></path>
        <path fill="#FFFFFF" d="M75.204 78.754l.577 1.775h1.871l-1.514 1.096.58 1.774-1.514-1.096-1.512 1.096.578-1.774-1.512-1.096h1.869l.577-1.775z" data-color="1"></path>
        <path fill="#FFFFFF" d="M64.803 78.754l.578 1.775h1.868l-1.512 1.096.578 1.774-1.512-1.096-1.514 1.096.58-1.774-1.514-1.096h1.871l.577-1.775z" data-color="1"></path>
        <path fill="#FFFFFF" d="M54.4 78.754l.577 1.775h1.871l-1.512 1.096.577 1.774-1.513-1.096-1.512 1.096.577-1.774-1.511-1.096h1.868l.578-1.775z" data-color="1"></path>
        <path fill="#FFFFFF" d="M43.999 78.754l.577 1.775h1.869l-1.512 1.096.577 1.774-1.511-1.096-1.514 1.096.579-1.774-1.513-1.096h1.87l.578-1.775z" data-color="1"></path>
        <path fill="#FFFFFF" d="M33.595 78.754l.58 1.775h1.868l-1.511 1.096.577 1.774-1.514-1.096-1.511 1.096.577-1.774-1.512-1.096h1.869l.577-1.775z" data-color="1"></path>
        <path fill="#FFFFFF" d="M23.194 87.581l.578 1.775h1.87l-1.513 1.096.577 1.775-1.512-1.096-1.511 1.096.577-1.775-1.514-1.096h1.871l.577-1.775z" data-color="1"></path>
        <path fill="#FFFFFF" d="M75.204 87.581l.577 1.775h1.871l-1.514 1.096.58 1.775-1.514-1.096-1.512 1.096.578-1.775-1.512-1.096h1.869l.577-1.775z" data-color="1"></path>
        <path fill="#FFFFFF" d="M64.803 87.581l.578 1.775h1.868l-1.512 1.096.578 1.775-1.512-1.096-1.514 1.096.58-1.775-1.514-1.096h1.871l.577-1.775z" data-color="1"></path>
        <path fill="#FFFFFF" d="M54.4 87.581l.577 1.775h1.871l-1.512 1.096.577 1.775-1.513-1.096-1.512 1.096.577-1.775-1.511-1.096h1.868l.578-1.775z" data-color="1"></path>
        <path fill="#FFFFFF" d="M43.999 87.581l.577 1.775h1.869l-1.512 1.096.577 1.775-1.511-1.096-1.514 1.096.579-1.775-1.513-1.096h1.87l.578-1.775z" data-color="1"></path>
        <path fill="#FFFFFF" d="M33.595 87.581l.58 1.775h1.868l-1.511 1.096.577 1.775-1.514-1.096-1.511 1.096.577-1.775-1.512-1.096h1.869l.577-1.775z" data-color="1"></path>
        <path fill="#FFFFFF" d="M23.194 96.409l.578 1.774h1.87l-1.513 1.098.577 1.773-1.512-1.096-1.511 1.096.577-1.773-1.514-1.098h1.871l.577-1.774z" data-color="1"></path>
        <path fill="#FFFFFF" d="M75.204 96.409l.577 1.774h1.871l-1.514 1.098.58 1.773-1.514-1.096-1.512 1.096.578-1.773-1.512-1.098h1.869l.577-1.774z" data-color="1"></path>
        <path fill="#FFFFFF" d="M64.803 96.409l.578 1.774h1.868l-1.512 1.098.578 1.773-1.512-1.096-1.514 1.096.58-1.773-1.514-1.098h1.871l.577-1.774z" data-color="1"></path>
        <path fill="#FFFFFF" d="M54.4 96.409l.577 1.774h1.871l-1.512 1.098.577 1.773-1.513-1.096-1.512 1.096.577-1.773-1.511-1.098h1.868l.578-1.774z" data-color="1"></path>
        <path fill="#FFFFFF" d="M43.999 96.409l.577 1.774h1.869l-1.512 1.098.577 1.773-1.511-1.096-1.514 1.096.579-1.773-1.513-1.098h1.87l.578-1.774z" data-color="1"></path>
        <path fill="#FFFFFF" d="M33.595 96.409l.58 1.774h1.868l-1.511 1.098.577 1.773-1.514-1.096-1.511 1.096.577-1.773-1.512-1.098h1.869l.577-1.774z" data-color="1"></path>
        <path fill="#FFFFFF" d="M70.004 91.996l.577 1.775h1.871l-1.514 1.096.577 1.774-1.511-1.098-1.512 1.098.577-1.774-1.514-1.096h1.871l.578-1.775z" data-color="1"></path>
        <path fill="#FFFFFF" d="M59.602 91.996l.578 1.775h1.868l-1.511 1.096.577 1.774-1.512-1.098-1.513 1.098.577-1.774-1.512-1.096h1.869l.579-1.775z" data-color="1"></path>
        <path fill="#FFFFFF" d="M49.199 91.996l.578 1.775h1.87l-1.514 1.096.578 1.774-1.512-1.098-1.511 1.098.577-1.774-1.514-1.096h1.871l.577-1.775z" data-color="1"></path>
        <path fill="#FFFFFF" d="M38.798 91.996l.577 1.775h1.869l-1.512 1.096.578 1.774-1.512-1.098-1.514 1.098.578-1.774-1.512-1.096h1.869l.579-1.775z" data-color="1"></path>
        <path fill="#FFFFFF" d="M28.395 91.996l.577 1.775h1.871l-1.514 1.096.58 1.774-1.514-1.098-1.512 1.098.578-1.774-1.514-1.096h1.87l.578-1.775z" data-color="1"></path>
        <path fill="#FFFFFF" d="M70.004 83.169l.577 1.772h1.871l-1.514 1.098.577 1.775-1.511-1.098-1.512 1.098.577-1.775-1.514-1.098h1.871l.578-1.772z" data-color="1"></path>
        <path fill="#FFFFFF" d="M59.602 83.169l.578 1.772h1.868l-1.511 1.098.577 1.775-1.512-1.098-1.513 1.098.577-1.775-1.512-1.098h1.869l.579-1.772z" data-color="1"></path>
        <path fill="#FFFFFF" d="M49.199 83.169l.578 1.772h1.87l-1.514 1.098.578 1.775-1.512-1.098-1.511 1.098.577-1.775-1.514-1.098h1.871l.577-1.772z" data-color="1"></path>
        <path fill="#FFFFFF" d="M38.798 83.169l.577 1.772h1.869l-1.512 1.098.578 1.775-1.512-1.098-1.514 1.098.578-1.775-1.512-1.098h1.869l.579-1.772z" data-color="1"></path>
        <path fill="#FFFFFF" d="M28.395 83.169l.577 1.772h1.871l-1.514 1.098.58 1.775-1.514-1.098-1.512 1.098.578-1.775-1.514-1.098h1.87l.578-1.772z" data-color="1"></path>
        <path fill="#FFFFFF" d="M70.004 74.339l.577 1.775h1.871l-1.514 1.098.577 1.775-1.511-1.098-1.512 1.098.577-1.775-1.514-1.098h1.871l.578-1.775z" data-color="1"></path>
        <path fill="#FFFFFF" d="M59.602 74.339l.578 1.775h1.868l-1.511 1.098.577 1.775-1.512-1.098-1.513 1.098.577-1.775-1.512-1.098h1.869l.579-1.775z" data-color="1"></path>
        <path fill="#FFFFFF" d="M49.199 74.339l.578 1.775h1.87l-1.514 1.098.578 1.775-1.512-1.098-1.511 1.098.577-1.775-1.514-1.098h1.871l.577-1.775z" data-color="1"></path>
        <path fill="#FFFFFF" d="M38.798 74.339l.577 1.775h1.869l-1.512 1.098.578 1.775-1.512-1.098-1.514 1.098.578-1.775-1.512-1.098h1.869l.579-1.775z" data-color="1"></path>
        <path fill="#FFFFFF" d="M28.395 74.339l.577 1.775h1.871l-1.514 1.098.58 1.775-1.514-1.098-1.512 1.098.578-1.775-1.514-1.098h1.87l.578-1.775z" data-color="1"></path>
        <path fill="#FFFFFF" d="M70.004 65.512l.577 1.775h1.871l-1.514 1.098.577 1.774-1.511-1.098-1.512 1.098.577-1.774-1.514-1.098h1.871l.578-1.775z" data-color="1"></path>
        <path fill="#FFFFFF" d="M59.602 65.512l.578 1.775h1.868l-1.511 1.098.577 1.774-1.512-1.098-1.513 1.098.577-1.774-1.512-1.098h1.869l.579-1.775z" data-color="1"></path>
        <path fill="#FFFFFF" d="M49.199 65.512l.578 1.775h1.87l-1.514 1.098.578 1.774-1.512-1.098-1.511 1.098.577-1.774-1.514-1.098h1.871l.577-1.775z" data-color="1"></path>
        <path fill="#FFFFFF" d="M38.798 65.512l.577 1.775h1.869l-1.512 1.098.578 1.774-1.512-1.098-1.514 1.098.578-1.774-1.512-1.098h1.869l.579-1.775z" data-color="1"></path>
        <path fill="#FFFFFF" d="M28.395 65.512l.577 1.775h1.871l-1.514 1.098.58 1.774-1.514-1.098-1.512 1.098.578-1.774-1.514-1.098h1.87l.578-1.775z" data-color="1"></path>
    </g>
</svg>