<svg preserveAspectRatio="xMidYMid meet" data-bbox="22.895 23.003 154.1 154.005" viewBox="22.895 23.003 154.1 154.005" xmlns="http://www.w3.org/2000/svg" data-type="color" role="img"><defs><style>#comp-kdpdsgps svg [data-color="1"] {fill: #1D9690;}</style></defs>
    <g>
        <path d="M176.3 145.6l-.8-2.3c-1.8-5.4-7.8-11-13.3-12.5l-20.2-5.4c-5.4-1.5-13.4.6-17.3 4.5l-7.4 7.4c-26.6-7.1-47.5-28.1-54.6-54.6l7.4-7.4c4-4 6-11.8 4.5-17.3L69 37.7c-1.5-5.4-7.1-11.4-12.5-13.2l-2.3-.8c-5.4-1.8-13.1 0-17.1 4.1l-11 11c-1.9 1.9-3.2 7.5-3.2 7.6-.3 34.8 13.3 68.3 37.8 92.8 24.6 24.6 57.9 38.2 92.6 37.8.2 0 5.9-1.2 7.8-3.2l11-11c4.2-4.1 6-11.8 4.2-17.2z" fill="rgb(29, 150, 144)" data-color="1"></path>
    </g>
</svg>