<svg width="50" height="50" viewBox="0 0 50 50" fill="none" xmlns="http://www.w3.org/2000/svg">
<path d="M18.9286 18C17.8713 18 17 18.8713 17 19.9286V31.0714C17 32.1287 17.8713 33 18.9286 33H30.0714C31.1287 33 32 32.1287 32 31.0714V19.9286C32 18.8713 31.1287 18 30.0714 18H18.9286ZM18.9286 19.2857H30.0714C30.4387 19.2857 30.7143 19.5613 30.7143 19.9286V24.8571H28.0826C27.7756 23.1585 26.2839 21.8571 24.5 21.8571C22.7161 21.8571 21.2244 23.1585 20.9174 24.8571H18.2857V19.9286C18.2857 19.5613 18.5613 19.2857 18.9286 19.2857ZM28.7857 20.5714C28.3123 20.5714 27.9286 20.9552 27.9286 21.4286C27.9286 21.902 28.3123 22.2857 28.7857 22.2857C29.2591 22.2857 29.6429 21.902 29.6429 21.4286C29.6429 20.9552 29.2591 20.5714 28.7857 20.5714ZM24.5 23.1429C25.8094 23.1429 26.8571 24.1906 26.8571 25.5C26.8571 26.8094 25.8094 27.8571 24.5 27.8571C23.1906 27.8571 22.1429 26.8094 22.1429 25.5C22.1429 24.1906 23.1906 23.1429 24.5 23.1429ZM18.2857 26.1429H20.9174C21.2218 27.8447 22.7138 29.1429 24.5 29.1429C26.2862 29.1429 27.7782 27.8447 28.0826 26.1429H30.7143V31.0714C30.7143 31.4387 30.4387 31.7143 30.0714 31.7143H18.9286C18.5613 31.7143 18.2857 31.4387 18.2857 31.0714V26.1429Z" fill="#EA4747"/>
<circle cx="25" cy="25" r="24.5" stroke="#EA4747"/>
</svg>
