<svg width="191" height="78" viewBox="0 0 191 78" fill="none" xmlns="http://www.w3.org/2000/svg">
<path fill-rule="evenodd" clip-rule="evenodd" d="M47.3088 8.4633C41.5219 12.0687 36.8655 17.2288 33.8714 23.3544C33.6393 23.8796 33.5538 24.6614 33.8103 24.5759C67.6359 13.5817 63.8123 65.9508 31.8925 59.1344C31.1229 67.5145 30.0601 71.3502 27.6169 76.5664C27.4459 76.945 26.9695 77.2626 26.6641 77.1649C26.4996 77.1164 26.3594 77.0078 26.2711 76.8608C26.1829 76.7137 26.1531 76.5389 26.1877 76.3709C27.2138 70.7638 28.1422 65.1568 23.8178 58.7313C20.6539 54.0771 8.54808 55.7751 4.41914 51.0598C-6.99041 37.94 5.29868 16.5624 22.9872 26.0296C21.1426 19.7629 19.5423 9.99028 23.207 0.77957C23.2804 0.565665 23.3921 0.366951 23.5369 0.193212C23.9522 -0.258772 24.9417 0.193212 25.5158 0.425312C26.8718 0.852865 27.7513 1.76905 29.095 2.20882C29.9257 3.10057 28.4476 3.94346 28.6919 5.43379C29.7913 3.99232 30.4999 2.13552 31.5138 0.54747C33.617 1.16455 35.4613 2.4513 36.7666 4.21221C35.7527 6.65537 34.4211 8.86643 33.5294 11.4684C35.4839 9.20847 39.8205 5.11618 43.9739 3.41818C45.5742 4.10227 47.3577 7.79144 47.3088 8.4633Z" fill="#9FD2BE"/>
<path d="M159.389 59.5497C159.657 58.8412 159.816 58.206 160.097 57.4486C160.268 56.9478 160.403 56.4347 160.549 55.9339C160.83 54.9566 161.087 53.9793 161.404 53.0143C161.722 52.0492 163.066 47.6516 163.2 47.1018C163.334 46.5521 163.518 45.8803 163.591 45.697C164.055 44.3899 164.08 44.0235 164.495 42.5209C164.715 41.7513 165.191 39.9556 165.24 39.7357C165.35 39.2593 165.863 37.5124 166.205 36.6207C166.401 36.1076 166.572 35.6434 166.779 35.1426C166.94 34.7238 167.128 34.3158 167.341 33.921C167.61 33.4324 167.622 33.3469 168.502 33.3591C168.93 33.3338 169.36 33.3542 169.784 33.4202C170.016 33.5912 170.041 34.1287 170.126 34.5684C170.285 35.3625 170.359 36.1565 170.505 36.9505C170.652 37.7445 170.627 38.1721 170.725 39.1616C170.725 39.7113 170.847 40.3832 170.896 40.8474C170.945 41.3116 170.896 41.5559 170.896 41.8491C170.921 42.2559 170.921 42.6638 170.896 43.0706C170.896 43.486 170.994 43.9624 171.006 44.3899C171.091 45.9536 171.128 46.6132 171.275 47.7126C171.348 48.2868 171.36 48.8731 171.397 49.4595C171.458 50.4245 171.397 51.0598 171.519 52.0248C171.641 52.9899 171.519 53.6739 171.653 54.7245C171.81 56.1524 171.888 57.588 171.885 59.0245C171.885 60.7347 172.081 62.0173 172.13 63.7275C172.13 64.6559 172.215 65.5966 172.301 66.525C172.301 66.9647 172.301 67.4045 172.435 68.5406C172.508 69.359 172.545 69.6522 172.545 69.9332C172.545 70.2141 171.934 70.0675 171.324 70.0675H169.748H169.54C169.32 69.982 169.332 69.7377 169.296 69.3346C169.222 68.113 169.198 67.3801 169.149 66.1463C169.1 64.9125 169.027 63.129 169.003 61.9685C168.978 60.808 168.88 60.2827 168.844 58.9512C168.844 58.548 168.77 57.4242 168.746 56.508C168.746 54.4191 168.648 54.5046 168.624 53.3563C168.624 52.4035 168.441 52.0126 168.38 50.0703C168.38 49.0564 168.233 48.1646 168.172 47.1751C168.086 45.6237 168.038 45.4405 168.001 44.732V43.7425C168.001 43.1561 168.001 43.0462 167.94 42.5209C167.962 42.3139 167.962 42.105 167.94 41.8979C167.94 41.6292 167.94 41.5803 167.83 41.5559C167.72 41.5314 167.671 42.0079 167.622 42.2033C167.28 43.657 167.134 44.109 166.633 45.8681C166.364 46.8697 166.12 47.4928 165.79 48.6777C165.46 49.8626 165.277 50.3879 164.922 51.4507C164.788 51.8538 164.263 53.6006 164.141 54.0038C163.799 55.1154 163.762 55.4086 163.395 56.5202L163.163 57.302C163.017 57.7418 162.418 59.904 161.832 61.6631C161.6 62.396 161.38 63.0435 161.099 63.7764C160.94 64.1795 160.366 64.375 159.877 64.4483C159.39 64.5522 158.886 64.5522 158.399 64.4483C158.197 64.3762 158.016 64.2546 157.873 64.0945C157.73 63.9345 157.63 63.7411 157.581 63.5321C157.41 62.9091 157.141 62.4327 156.97 61.8097C156.75 60.979 156.53 60.7957 156.054 59.2321C155.968 58.9634 155.602 57.8029 155.48 57.4364C155.358 57.0699 155.138 56.4591 155.04 56.2148C154.844 55.7628 154.331 54.2114 153.672 52.3913C153.415 51.524 153.073 50.5467 152.731 49.7038C152.389 48.8609 152.181 48.299 151.9 47.6027L151.473 46.43C151.216 45.697 150.984 45.2084 150.691 44.4388C150.557 44.0845 150.031 42.7042 149.86 42.3743C149.86 42.8385 149.763 43.8891 149.75 44.2189C149.665 45.2939 149.628 46.3567 149.543 47.4317C149.543 47.5783 149.543 47.7859 149.543 47.9325C149.543 48.7632 149.384 49.5328 149.347 50.5833C149.347 51.414 149.237 52.4035 149.189 53.2342C149.14 54.0648 149.189 54.5657 149.127 55.2742C149.127 56.618 148.908 57.9495 148.908 58.939C148.908 61.2111 148.724 62.1151 148.614 64.0574C148.504 65.9997 148.468 66.9525 148.321 69.0903C148.348 69.399 148.285 69.709 148.138 69.982C148.004 70.2019 147.393 70.1286 147.112 70.1286C146.509 70.16 145.904 70.1395 145.304 70.0675C145.108 69.9332 145.304 69.7133 145.304 69.1758C145.304 68.1374 145.524 66.6227 145.573 65.6943C145.646 64.3628 145.78 63.0312 145.854 61.9074C145.927 60.7835 146 60.3071 146.025 59.3299C146.025 59.0978 146.025 58.4747 146.025 58.2426C146.025 57.6685 146.11 57.0211 146.147 56.4714C146.147 55.5918 146.232 55.2498 146.281 53.8938C146.281 53.2464 146.367 52.6722 146.379 51.9759C146.513 50.3757 146.538 49.1663 146.599 47.7004C146.599 47.0286 146.709 46.2834 146.758 45.6237C146.831 44.7075 146.831 43.9257 146.892 43.0218C146.965 41.8002 147.002 41.1894 147.1 39.467C147.185 38.5019 147.283 37.6346 147.356 37.0238C147.491 35.8877 147.588 35.4602 147.662 34.715C147.735 33.9699 147.881 33.7622 148.199 33.579C148.513 33.425 148.866 33.3656 149.213 33.4079C149.419 33.3954 149.625 33.416 149.824 33.469C150.325 33.64 150.471 34.5074 150.654 34.9349C150.838 35.3625 150.813 35.5091 151.033 36.1565C151.143 36.4619 151.253 36.8894 151.424 37.3781C151.595 37.8667 151.754 38.3065 151.913 38.7218C152.071 39.1371 152.255 39.9434 152.462 40.5053C152.67 41.0672 152.719 41.2749 152.939 41.8246C153.159 42.3743 153.635 43.7303 153.672 43.8524C153.879 44.3899 154.136 45.074 154.356 45.5627C155.186 47.7371 155.968 49.8138 156.054 50.0092C156.274 50.5589 156.371 51.0231 156.579 51.5728C156.787 52.1225 157.031 52.7944 157.275 53.5151C157.703 54.639 157.996 55.6285 158.497 57.0699C158.717 57.6319 159.144 58.9023 159.389 59.5497Z" fill="#4A4640"/>
<path d="M94.4129 35.6923C94.4129 35.9 94.4129 36.1199 94.2419 36.1565L93.2036 36.2176C91.9933 36.2044 90.7913 36.4199 89.661 36.8528C89.0655 37.0609 88.499 37.3442 87.9752 37.6957C87.4866 38.0664 87.0931 38.5479 86.8269 39.1005C86.4897 39.6886 86.2387 40.3222 86.0818 40.9817C85.8001 42.0635 85.6081 43.1667 85.5076 44.28C85.5076 44.9885 85.2877 46.1124 85.2389 46.8209C85.1534 48.1646 85.0557 49.8504 85.0434 51.2064C85.0312 52.5623 85.0434 53.8816 85.0434 55.2254C85.0434 56.3859 85.1412 57.3387 85.2267 58.4992C85.2267 59.11 85.4221 60.5514 85.5443 61.6142C85.6249 62.6766 85.9422 63.7075 86.4727 64.6315C86.7725 65.0941 87.1435 65.5064 87.5721 65.8531C88.0086 66.2968 88.5575 66.6135 89.1602 66.7693C90.1898 66.9786 91.2479 67.0075 92.2874 66.8548C92.8194 66.7854 93.3459 66.6793 93.8632 66.5372C94.2908 66.415 94.4129 67.038 94.584 67.4412C94.755 67.8443 94.7061 67.8809 94.7916 68.1375C94.8885 68.3741 94.9621 68.6195 95.0115 68.8704C95.0115 69.017 95.1337 69.1147 95.0115 69.188C94.1849 69.5863 93.2969 69.8424 92.3851 69.9454C91.2419 70.0972 90.0835 70.0972 88.9403 69.9454C88.4565 69.882 87.9785 69.7798 87.511 69.64C86.0888 69.1137 84.8786 68.1353 84.0662 66.8548C83.5042 65.9319 83.0919 64.9259 82.8446 63.8741C82.5701 62.4478 82.4108 61.0017 82.3682 59.5498C82.3682 59.11 82.3682 58.3282 82.2949 57.9128C82.2949 57.0822 82.2094 56.6913 82.1849 56.0438C82.1849 55.6896 82.1849 55.3964 82.1849 55.0421C82.1849 54.6879 82.1849 54.2237 82.1849 53.8205C82.1849 53.6129 82.1849 51.9271 82.1849 51.0476C82.1849 50.3757 82.246 49.6794 82.1849 48.9831C82.1849 48.5555 82.1849 48.1524 82.1849 47.7615C82.1849 47.053 82.3193 45.9047 82.3926 45.1962C82.4659 44.4877 82.5148 43.657 82.6125 42.753C82.7102 41.8491 82.9423 40.542 83.0889 39.8945C83.2229 39.3778 83.3944 38.8716 83.602 38.3798C83.7974 37.94 84.054 37.5125 84.2861 37.0849C84.5546 36.68 84.8484 36.2924 85.1656 35.9244C85.5946 35.3922 86.1264 34.9519 86.7292 34.6295C88.8184 33.6262 91.1393 33.2042 93.4479 33.408C93.8999 33.408 94.0465 33.7133 94.1808 34.1775C94.3152 34.6417 94.3274 35.2648 94.4129 35.6923Z" fill="#4A4640"/>
<path d="M111.955 68.1374C111.955 67.8076 111.747 66.3539 111.686 65.9752C111.478 64.7537 111.393 63.9474 111.222 62.7014C111.087 61.7364 110.904 60.808 110.794 59.8307C110.635 58.4137 110.415 56.9233 110.269 55.5063C110.122 54.0893 109.988 52.7577 109.817 51.3774C109.609 49.7038 109.389 48.0424 109.145 46.3689C108.998 45.3183 108.876 44.4021 108.717 43.3516C108.559 42.301 108.412 41.2382 108.278 40.2488C108.143 39.2593 107.801 37.8056 107.655 36.7673C107.508 35.7289 107.423 34.7028 107.239 33.9943C107.239 33.8355 107.019 33.5057 106.873 33.4812C106.015 33.3664 105.148 33.3296 104.283 33.3713C103.562 33.3713 103.355 33.5912 103.22 34.1775C103.086 34.7639 103.025 35.3991 102.878 36.2786C102.793 36.7551 102.671 37.5002 102.61 37.94C102.487 38.9172 102.402 39.4547 102.231 40.3831C102.231 40.7618 102.097 41.2138 102.023 41.6047C101.95 41.9956 101.828 42.6431 101.767 42.924C101.62 43.5715 101.266 45.4771 101.144 46.3445C101.022 47.2118 100.716 48.9098 100.692 49.0686C100.618 49.7038 100.557 50.2902 100.472 50.962C100.43 51.6295 100.327 52.2918 100.166 52.941C99.9465 53.6006 99.69 55.604 99.6167 55.9216C99.4823 56.5691 99.3846 57.2898 99.2502 57.925C99.1159 58.5602 98.7983 60.3682 98.725 60.7957C98.5906 61.6386 98.0409 64.6193 97.8943 65.4255C97.65 66.6471 97.4423 67.7221 97.2835 68.5772C97.1567 69.0359 97.0789 69.5068 97.0514 69.982C97.2102 70.1652 98.0287 70.1042 98.6517 70.1042C99.6167 70.1042 99.8732 70.1042 100.044 69.6033C100.276 68.6261 100.496 67.4778 100.704 66.0852C100.826 65.2423 100.997 64.4605 101.119 63.642C101.217 62.9855 101.36 62.3365 101.547 61.6997L103.501 61.8096C105.321 61.9074 108.082 61.9074 108.082 61.9074C108.146 62.0931 108.187 62.2859 108.204 62.4815C108.204 62.9457 108.314 63.4099 108.363 63.8741C108.412 64.3383 108.473 64.9247 108.546 65.45C108.754 67.1113 108.876 68.2596 109.084 69.6033C109.084 70.0431 109.218 70.1286 109.536 70.1408C109.854 70.153 110.953 70.1408 111.173 70.1408C111.906 70.1408 112.297 70.263 112.187 69.5911C112.113 69.2613 112.028 68.565 111.955 68.1374ZM107.838 58.9634C106.616 58.9634 105.163 58.8901 103.868 58.8168C103.223 58.819 102.579 58.7863 101.938 58.7191C101.962 58.1551 102.04 57.5947 102.17 57.0455C102.463 55.0665 102.756 53.4785 103.025 51.6705C103.318 49.6549 103.623 47.6271 103.953 45.5626C104.124 44.5487 104.308 43.2905 104.491 42.1911C104.491 42.0811 104.918 40.4687 105.114 39.5158C105.121 39.4502 105.145 39.3874 105.183 39.3339C105.222 39.2803 105.274 39.2378 105.334 39.2104C105.407 39.2104 105.505 39.2104 105.59 39.638C105.737 40.5297 105.883 41.9468 105.981 42.8507C106.116 44.17 106.506 47.4317 106.604 47.9936C106.702 48.5555 106.971 50.9376 107.019 51.4262C107.814 58.8412 107.777 57.9006 107.838 58.9634Z" fill="#4A4640"/>
<path d="M80.3771 68.1374C80.3771 67.8076 80.1572 66.3539 80.0961 65.9752C79.8884 64.7537 79.8029 63.9474 79.6319 62.7014C79.4975 61.7364 79.3143 60.808 79.2043 59.8307C79.0455 58.4137 78.8257 56.9233 78.6791 55.5063C78.5325 54.0893 78.3981 52.7577 78.2271 51.3774C78.0194 49.7038 77.7995 48.0424 77.5674 46.3689C77.4086 45.3183 77.2865 44.4021 77.1277 43.3516C76.9688 42.301 76.8345 41.2382 76.6879 40.2488C76.5413 39.2593 76.2237 37.8056 76.0649 36.7673C75.9061 35.7289 75.8328 34.7028 75.6618 33.9943C75.6618 33.8355 75.4297 33.5057 75.2831 33.4812C74.4249 33.3664 73.5581 33.3296 72.6933 33.3713C71.9848 33.3713 71.7649 33.5912 71.6305 34.1775C71.4962 34.7639 71.4473 35.3991 71.2885 36.2786C71.203 36.7551 71.0808 37.5002 71.0198 37.94C70.8976 38.9172 70.8121 39.4547 70.6411 40.3831C70.6411 40.7618 70.5067 41.2138 70.4334 41.6047C70.3601 41.9956 70.2379 42.6431 70.1769 42.924C70.0303 43.5715 69.676 45.4771 69.5539 46.3445C69.4317 47.2118 69.1263 48.9098 69.1141 49.0686C69.0286 49.7038 68.9675 50.2902 68.882 50.962C68.8257 51.6183 68.7112 52.2683 68.54 52.9043C68.3201 53.564 68.0635 55.5674 67.9902 55.885C67.8559 56.5324 67.7581 57.2532 67.6238 57.8884C67.4894 58.5236 67.1718 60.3315 67.0985 60.7591C66.9641 61.602 66.4144 64.5826 66.2678 65.3889C66.0235 66.6105 65.8158 67.6854 65.657 68.5405C65.5302 68.9993 65.4524 69.4702 65.4249 69.9454C65.5837 70.1286 66.4022 70.0675 67.0252 70.0675C67.9902 70.0675 68.3079 70.0675 68.4178 69.5667C68.6499 68.5894 68.8698 67.4411 69.0774 66.0485C69.1996 65.2056 69.3706 64.4238 69.505 63.6054C69.5956 62.9486 69.7345 62.2994 69.9203 61.6631L71.8749 61.773C73.7072 61.8707 76.4558 61.8707 76.4558 61.8707C76.5194 62.0565 76.5604 62.2493 76.5779 62.4449C76.639 62.9091 76.6879 63.3733 76.7367 63.8375C76.7856 64.3017 76.8467 64.888 76.92 65.4133C77.1399 67.0747 77.2498 68.2229 77.4575 69.5667C77.5186 70.0064 77.5919 70.092 77.9095 70.1042C78.2271 70.1164 79.3265 70.1042 79.5464 70.1042C80.2793 70.1042 80.6702 70.2263 80.5603 69.5545C80.5236 69.2613 80.4381 68.565 80.3771 68.1374ZM76.2481 58.9634C75.0265 58.9634 73.5729 58.8901 72.278 58.8168C71.6374 58.8192 70.9971 58.7866 70.3601 58.7191C70.3687 58.1546 70.4425 57.593 70.58 57.0455C70.8732 55.0665 71.1663 53.4785 71.4351 51.6705C71.7283 49.6549 72.0337 47.6271 72.3635 45.5626C72.5345 44.5487 72.7178 43.2905 72.9132 42.1911C72.9132 42.0811 73.3285 40.4687 73.524 39.5158C73.5308 39.4502 73.5548 39.3874 73.5933 39.3339C73.6319 39.2803 73.6838 39.2378 73.7439 39.2104C73.8294 39.2104 73.9271 39.2104 74.0004 39.638C74.147 40.5297 74.2936 41.9468 74.3913 42.8507C74.5257 44.17 74.9166 47.4317 75.0143 47.9936C75.112 48.5555 75.3808 50.9376 75.4419 51.4262C76.2237 58.8412 76.187 57.9006 76.2481 58.9634Z" fill="#4A4640"/>
<path d="M182.489 47.8104C182.892 46.5888 183.161 45.9414 183.405 45.1718C183.747 44.1701 183.857 43.7914 184.199 42.7286C184.602 41.507 184.81 41.0306 184.993 40.2855C185.237 39.3815 185.677 38.1599 185.836 37.5735C186.08 36.6696 186.471 35.4236 186.581 35.1304C186.718 34.5408 186.927 33.9705 187.204 33.4324C187.204 33.3591 187.326 33.3224 187.766 33.3224H189.855C190.258 33.3224 190.038 33.6034 189.855 34.544C189.672 35.4846 189.33 36.3764 188.804 38.2088C188.279 40.0411 188.047 40.6519 187.583 42.2888C186.972 44.1579 186.752 45.4161 186.166 47.3095C185.579 49.203 185.14 50.6322 184.675 52.0615C184.657 52.3544 184.657 52.6481 184.675 52.941C184.675 54.2848 184.675 54.2847 184.675 55.6285C184.675 56.2881 184.675 56.618 184.675 57.2654C184.675 57.4486 184.675 58.1083 184.675 58.2915C184.637 58.9547 184.637 59.6195 184.675 60.2827C184.749 61.2844 184.675 61.8708 184.81 63.581C184.944 65.2912 185.042 67.5389 185.054 69.2247C185.054 69.8599 185.201 70.1408 184.761 70.1164H183.051C182.731 70.1549 182.408 70.13 182.098 70.0431C182.003 69.6432 181.962 69.2324 181.976 68.8215C181.878 67.1236 181.854 65.4378 181.768 63.7764C181.768 62.8725 181.768 62.8358 181.683 61.4432C181.683 60.6614 181.621 59.7452 181.585 59C181.585 57.5097 181.426 56.7035 181.389 55.2131C181.389 54.3947 181.389 54.1259 181.279 53.393C181.279 53.393 180.803 52.1714 180.461 51.4995C179.814 50.2169 179.704 49.9115 179.239 48.8976C178.775 47.8837 178.091 46.7476 177.578 45.6726L177.273 44.9519C177.016 44.3777 176.784 43.7303 176.552 43.205C176.393 42.8263 176.222 42.5209 176.002 42.1056C175.868 41.8735 175.856 41.7025 175.758 41.507C175.66 41.3116 175.404 40.9207 175.281 40.6031C174.622 38.9906 174.549 38.5997 174.06 37.4514C173.594 36.4789 173.186 35.4795 172.838 34.4585C172.692 34.0187 172.411 33.5423 172.973 33.4568C173.587 33.408 174.203 33.408 174.817 33.4568C175.489 33.4568 175.782 33.3591 175.953 33.7622C176.32 34.6418 176.686 35.3747 177.089 36.2787C177.224 36.5841 177.651 37.5002 177.761 37.7568C177.852 37.9954 177.958 38.2279 178.079 38.4531C178.157 38.6148 178.222 38.7823 178.274 38.9539C178.374 39.4221 178.565 39.8662 178.836 40.261C179.013 40.5675 179.168 40.8859 179.3 41.2139C179.777 42.3011 180.217 43.3883 180.73 44.451C181.216 45.6204 181.805 46.7446 182.489 47.8104Z" fill="#4A4640"/>
<path d="M129.142 56.6057C129.142 55.8972 129.301 53.3075 129.301 53.0632C129.301 52.3302 129.154 51.6828 129.106 50.8887C129.02 49.3862 128.996 47.8104 128.812 46.5888C128.618 45.461 128.337 44.35 127.97 43.2661C127.86 42.9485 127.774 42.582 127.676 42.2522C127.452 41.3275 127.099 40.4392 126.626 39.6136C126.109 38.7601 125.534 37.9437 124.903 37.1704C124.109 36.1448 123.094 35.31 121.935 34.7272C121.383 34.4065 120.807 34.1288 120.213 33.8966C119.749 33.6859 119.26 33.534 118.759 33.4446C118.355 33.3827 117.946 33.3541 117.537 33.3591C116.707 33.3591 116.157 33.3591 115.705 33.8477C115.253 34.3363 115.241 35.4358 115.253 36.4375C115.253 37.1093 115.253 37.8056 115.253 38.2576C115.253 39.1494 115.253 42.2766 115.253 42.6797C115.18 45.3672 115.253 47.0896 115.253 48.47C115.253 48.9586 115.253 50.4245 115.253 50.6689C115.326 52.1592 115.253 52.77 115.253 54.3336C115.253 55.1643 115.253 56.3614 115.253 57.1921C115.253 57.6685 115.253 60.7835 115.253 60.8568C115.253 62.0784 115.253 63.1045 115.253 64.375C115.253 64.9858 115.253 66.4639 115.253 66.9647C115.209 67.6889 115.209 68.415 115.253 69.1391C115.273 69.4161 115.4 69.6744 115.607 69.8599C116.038 70.0726 116.523 70.1533 117 70.092C117.689 70.1218 118.379 70.0973 119.064 70.0187C119.851 69.8823 120.61 69.6182 121.312 69.2369C121.703 69.0536 122.534 68.5406 122.986 68.2596C123.669 67.841 124.311 67.3583 124.903 66.8181C125.736 66.0329 126.422 65.1065 126.931 64.0818C127.594 62.8865 128.083 61.6033 128.385 60.2705C128.705 59.0639 128.958 57.8405 129.142 56.6057ZM126.357 52.1836C126.357 53.0143 126.357 53.6129 126.357 54.9932C126.307 56.3368 126.139 57.6734 125.856 58.9878C125.702 59.9563 125.423 60.9007 125.026 61.7974C124.647 62.5697 124.161 63.2852 123.584 63.923C122.9 64.8316 122.024 65.5783 121.019 66.1096C120.216 66.5591 119.369 66.9235 118.49 67.1968C118.234 67.2823 118.197 67.1968 118.197 66.9036C118.197 65.9997 118.27 64.6315 118.197 63.9108C118.124 63.1901 118.197 62.1761 118.197 61.4676C118.197 60.5148 118.197 59.5131 118.197 58.5725C118.197 57.412 118.197 56.4958 118.197 55.3475C118.197 54.4558 118.197 53.283 118.197 52.3913C118.197 51.2796 118.197 50.7544 118.197 49.6427C118.197 49.2152 118.197 47.7493 118.124 47.334C118.124 45.8681 118.124 45.6604 118.124 44.4388C118.124 43.4371 118.124 42.8996 118.124 41.7635C118.124 41.3604 118.221 40.1755 118.221 39.7724C118.221 38.844 118.319 36.3642 118.319 36.3642C119.473 36.5353 120.577 36.9518 121.556 37.5857C122.561 38.2217 123.398 39.0887 123.999 40.1144C124.184 40.3673 124.343 40.6373 124.476 40.9207C124.815 41.5624 125.097 42.2328 125.319 42.924C125.6 43.7914 125.746 44.6465 125.942 45.526C126.071 46.0862 126.168 46.653 126.235 47.224C126.369 48.299 126.369 48.9098 126.467 50.168C126.284 50.2657 126.357 51.3163 126.357 52.1836Z" fill="#4A4640"/>
<path d="M135.409 66.8548C135.669 66.9166 135.937 66.9372 136.203 66.9159C137.367 66.9917 138.534 66.9917 139.697 66.9159C140.481 66.8364 141.271 66.8364 142.055 66.9159C142.458 67.2824 142.262 67.2824 142.287 68.2108C142.287 68.3696 142.287 69.2735 142.287 69.4323C142.287 69.5911 142.287 70.0553 142.018 70.0431C141.749 70.0309 140.796 69.9576 140.405 69.982C139.343 69.982 137.73 69.982 137.058 69.982C136.777 69.982 135.629 69.982 135.348 69.982C134.431 70.0303 133.512 70.0058 132.6 69.9088C132.38 69.6278 132.6 69.5178 132.429 69.1758C132.338 68.013 132.338 66.8449 132.429 65.6821C132.429 65.3156 132.429 60.0995 132.343 58.7802C132.343 58.658 132.343 58.5847 132.343 58.5358V58.4015C132.343 58.2915 132.343 58.2549 132.343 58.0839C132.441 56.96 132.343 54.2725 132.343 53.9916C132.429 53.3075 132.477 49.9604 132.49 49.3251C132.502 48.6899 132.49 44.6587 132.49 44.1212C132.414 42.9008 132.414 41.6769 132.49 40.4565C132.49 40.1144 132.404 37.3292 132.367 36.7917C132.304 36.1091 132.304 35.4221 132.367 34.7395C132.367 34.3241 132.27 33.6767 132.6 33.5179C132.929 33.3591 133.32 33.2369 134.212 33.298C134.298 33.298 136.472 33.298 136.545 33.298C137.584 33.2369 139.416 33.298 139.929 33.298C140.674 33.298 141.908 33.298 142.641 33.298C143.032 33.298 142.922 34.1287 142.885 34.5929C142.885 34.7639 142.885 36.1565 142.763 36.242C142.432 36.3048 142.092 36.3048 141.761 36.242C141.212 36.242 139.966 36.242 139.55 36.1809C138.402 36.1255 137.251 36.1459 136.106 36.242C135.629 36.242 135.531 36.242 135.58 36.7795C135.629 37.317 135.58 37.5247 135.58 38.0011C135.58 38.2698 135.58 38.9539 135.654 39.3082C135.654 39.9434 135.654 41.1528 135.654 41.8613C135.654 42.5698 135.776 45.0007 135.825 45.8559C135.825 46.3689 135.825 47.2851 135.825 47.7982C135.825 47.9081 135.825 48.0303 135.825 48.1402C135.825 48.5678 135.825 48.5678 136.313 48.58C136.802 48.5922 139.758 48.6899 140.43 48.58C140.602 48.5468 140.78 48.5481 140.952 48.5838C141.123 48.6194 141.287 48.6887 141.432 48.7876C141.59 49.0075 141.432 49.5206 141.542 50.5467C141.542 50.7422 141.542 51.5606 141.395 51.6461C140.76 51.6799 140.124 51.6799 139.489 51.6461C138.83 51.6461 138.036 51.6461 137.376 51.5851C136.923 51.6501 136.466 51.6828 136.008 51.6828C135.751 51.6828 135.629 51.7561 135.654 52.0126C135.654 52.7211 135.58 53.8083 135.654 54.5291C135.654 54.8345 135.654 61.6509 135.654 62.2617C135.654 63.3977 135.654 64.5216 135.654 65.6577C135.485 66.0337 135.401 66.4426 135.409 66.8548Z" fill="#4A4640"/>
<path d="M69.114 21.0456C69.114 20.8379 69.114 19.3231 69.114 19.1155C69.114 18.9078 69.1751 16.8189 69.114 16.5257C69.0957 16.1839 69.0957 15.8414 69.114 15.4996C69.114 15.0354 69.0163 12.58 69.114 12.3968C69.114 11.7493 69.0285 9.88033 69.0407 9.58715C69.053 9.29397 69.0407 8.97636 69.0407 8.65875C69.0407 8.34114 69.0407 7.96245 69.1629 7.79143C69.2478 7.69708 69.358 7.62922 69.4805 7.59597C69.9179 7.47708 70.372 7.43167 70.8242 7.4616C71.4088 7.4583 71.9833 7.61458 72.4856 7.91358C73.0426 8.25991 73.5011 8.74368 73.8171 9.3184C74.1961 10.0964 74.3686 10.9588 74.318 11.8226C74.2728 12.5349 74.0683 13.2279 73.7194 13.8505C73.5301 14.3078 73.2519 14.7231 72.9009 15.072C72.8093 15.1788 72.6971 15.266 72.5711 15.3286L72.8765 15.524C73.2573 15.8075 73.5947 16.1449 73.8782 16.5257C74.3362 17.1324 74.6534 17.8334 74.8066 18.578C74.9956 19.3249 75.0941 20.0919 75.0998 20.8623C75.1059 21.685 74.9042 22.496 74.5134 23.22C74.3052 23.5522 74.0502 23.8525 73.756 24.1117C73.5424 24.303 73.309 24.4709 73.0597 24.6126C72.8051 24.7604 72.5346 24.8792 72.2535 24.9668C71.8865 25.0833 71.5024 25.137 71.1174 25.1256H69.6271C69.5416 25.1256 69.1018 25.1256 69.0774 24.7592C69.0774 24.6737 69.0774 23.7941 69.0774 23.6842C69.0774 23.5742 69.114 21.1922 69.114 21.0456ZM70.5066 23.5987C70.5922 23.5987 71.3373 23.5987 71.4228 23.5987C71.9483 23.5047 72.431 23.2483 72.8032 22.8657C73.1961 22.4186 73.3978 21.8353 73.3651 21.241C73.3651 20.9478 73.3651 20.5081 73.3651 20.2149C73.3499 19.5495 73.2176 18.892 72.9742 18.2726C72.809 17.8117 72.5417 17.3941 72.1924 17.051L71.7038 16.5379C71.6368 16.4712 71.5581 16.4174 71.4717 16.3791C71.3641 16.331 71.2475 16.3061 71.1296 16.3058H70.4211C70.4211 16.5135 70.4211 16.7456 70.4211 16.9288C70.4211 17.6496 70.3478 18.3092 70.4211 19.03C70.4944 19.7507 70.4211 20.2515 70.4211 20.9112C70.4822 21.7907 70.4211 22.6458 70.5066 23.5987ZM70.5066 14.9255C70.6965 14.8924 70.8812 14.8349 71.0563 14.7544C71.6758 14.3434 72.1402 13.7371 72.3757 13.032C72.5755 12.5953 72.6756 12.1196 72.6688 11.6394C72.6932 11.0658 72.5888 10.4939 72.3634 9.96584C72.0968 9.56876 71.7123 9.2654 71.264 9.09852C70.9342 8.93971 70.4333 9.09852 70.4211 9.45278C70.4089 9.80703 70.4211 10.4545 70.4211 10.8209C70.4211 11.1874 70.4211 11.7738 70.4211 12.1769C70.4211 12.7755 70.4211 13.5451 70.4211 14.3513C70.4944 14.5223 70.4578 14.6689 70.47 14.9255H70.5066Z" fill="#4A4640"/>
<path d="M78.1782 23.5742C78.3038 23.5921 78.4312 23.5921 78.5568 23.5742C79.118 23.6165 79.6815 23.6165 80.2426 23.5742C80.6201 23.5315 81.0012 23.5315 81.3787 23.5742C81.5742 23.7453 81.4764 23.7453 81.4886 24.1972C81.4886 24.2705 81.4886 24.7103 81.4886 24.7958C81.4886 24.8813 81.4886 25.1012 81.3543 25.089C81.2199 25.0768 80.7679 25.089 80.5847 25.089C80.0716 25.089 79.2898 25.089 78.9722 25.089C78.6546 25.089 78.2759 25.089 78.1415 25.089C77.7023 25.1192 77.2615 25.1192 76.8222 25.089C76.7123 24.9546 76.8222 24.8935 76.7367 24.7347C76.6942 24.1736 76.6942 23.6101 76.7367 23.049C76.7367 22.8779 76.7367 20.3615 76.7367 19.7263C76.7449 19.686 76.7449 19.6444 76.7367 19.6041C76.7367 19.6041 76.7367 19.5308 76.7367 19.4575C76.7367 18.9078 76.7367 17.6129 76.7367 17.4786C76.7367 17.1487 76.7978 15.5362 76.81 15.2308C76.8222 14.9255 76.81 12.9831 76.81 12.7266C76.7771 12.1489 76.7771 11.5697 76.81 10.992C76.81 10.8209 76.81 9.48942 76.81 9.23289C76.7785 8.90382 76.7785 8.57249 76.81 8.24341C76.81 8.03575 76.81 7.73035 76.9199 7.64484C77.0299 7.55933 77.262 7.49825 77.6895 7.5349H78.8134C79.3142 7.5349 80.1938 7.5349 80.4503 7.5349C80.7068 7.5349 81.4031 7.5349 81.7574 7.5349C82.1116 7.5349 81.8918 7.93802 81.8795 8.1579C81.8673 8.37779 81.8795 8.91528 81.8795 8.95193C81.8795 8.98858 81.5375 8.95193 81.3909 8.95193C81.2443 8.95193 80.5236 8.95193 80.3281 8.95193C79.7752 8.91003 79.2198 8.91003 78.6668 8.95193C78.4347 8.95193 78.398 8.95193 78.4103 9.20846C78.4225 9.46499 78.4103 9.56272 78.4103 9.79482C78.4103 10.0269 78.4103 10.259 78.4103 10.43C78.4103 10.6011 78.4103 11.3218 78.4103 11.6516C78.4103 11.9814 78.4103 13.1664 78.4958 13.5695C78.5813 13.9726 78.4958 14.2658 78.4958 14.5101C78.3783 14.5357 78.2691 14.5903 78.1782 14.6689C78.1782 14.8766 78.1782 14.8766 78.4225 14.8888C78.6668 14.901 80.0838 14.8888 80.4014 14.8888C80.5708 14.8562 80.7462 14.8913 80.8901 14.9865C80.9634 15.0965 80.8901 15.3408 80.8901 15.8294C80.8901 15.9271 80.8901 16.3181 80.8168 16.3669C80.7435 16.4158 80.1327 16.3669 79.9006 16.3669C79.5629 16.3852 79.2244 16.3852 78.8867 16.3669C78.6672 16.386 78.4465 16.386 78.227 16.3669C78.1049 16.3669 78.0438 16.3669 78.056 16.5379C78.056 16.88 78.056 17.393 78.056 17.7595C78.056 17.9061 78.056 21.1922 78.056 21.4243C78.056 21.9618 78.056 22.5115 78.056 23.049C78.0727 23.2288 78.1138 23.4055 78.1782 23.5742Z" fill="#4A4640"/>
<path d="M84.5548 23.5742C84.6804 23.5921 84.8079 23.5921 84.9335 23.5742C85.4946 23.6165 86.0581 23.6165 86.6193 23.5742C86.9967 23.5315 87.3778 23.5315 87.7553 23.5742C87.9508 23.7453 87.853 23.7453 87.8653 24.1972C87.8653 24.2705 87.8653 24.7103 87.8653 24.7958C87.8653 24.8813 87.8653 25.1012 87.7309 25.089C87.5965 25.0768 87.1445 25.089 86.9613 25.089C86.4482 25.089 85.6664 25.089 85.3366 25.089C85.2022 25.089 84.6525 25.089 84.5181 25.089C84.0789 25.1192 83.6381 25.1192 83.1988 25.089C83.0889 24.9546 83.1988 24.8935 83.1133 24.7347C83.0648 24.1739 83.0648 23.6098 83.1133 23.049C83.1133 22.8779 83.1133 20.3615 83.1133 19.7263C83.1089 19.6857 83.1089 19.6447 83.1133 19.6041C83.1133 19.6041 83.1133 19.5308 83.1133 19.4575C83.1133 18.9078 83.1133 17.6129 83.1133 17.4786C83.1133 17.1487 83.1744 15.5362 83.1866 15.2308C83.1988 14.9255 83.1866 12.9831 83.1866 12.7266C83.1475 12.1491 83.1475 11.5695 83.1866 10.992C83.1866 10.8209 83.1866 9.48942 83.1866 9.23289C83.1547 8.90384 83.1547 8.57247 83.1866 8.24341C83.1866 8.03575 83.1866 7.73035 83.2966 7.64484C83.4065 7.55933 83.6508 7.49825 84.0784 7.5349H85.2022C85.7031 7.5349 86.5826 7.5349 86.8269 7.5349C87.0712 7.5349 87.792 7.5349 88.1462 7.5349C88.5005 7.5349 88.2806 7.93802 88.2562 8.1579C88.2317 8.37779 88.2562 8.91528 88.2562 8.95193C88.2562 8.98858 87.9141 8.95193 87.7675 8.95193C87.6209 8.95193 86.9002 8.95193 86.6925 8.95193C86.1436 8.91032 85.5923 8.91032 85.0434 8.95193C84.8113 8.95193 84.7625 8.95193 84.7869 9.20846C84.8113 9.46499 84.7869 9.56272 84.7869 9.79482C84.7869 10.0269 84.7869 10.259 84.7869 10.43C84.7869 10.6011 84.7869 11.3218 84.7869 11.6516C84.7869 11.9814 84.7869 13.1664 84.8724 13.5695C84.9579 13.9726 84.8724 14.2658 84.8724 14.5101C84.8724 14.5101 84.8724 14.6201 84.8724 14.6689C84.8724 14.7178 84.8724 14.8766 85.1045 14.8888C85.3366 14.901 86.7781 14.8888 87.0957 14.8888C87.1775 14.8716 87.2621 14.8714 87.344 14.8882C87.426 14.905 87.5036 14.9385 87.5721 14.9865C87.6576 15.0965 87.5721 15.3408 87.6332 15.8294C87.6332 15.9271 87.6332 16.3181 87.5599 16.3669C87.4866 16.4158 86.8758 16.3669 86.6437 16.3669C86.3019 16.3852 85.9594 16.3852 85.6176 16.3669C85.4022 16.386 85.1855 16.386 84.9701 16.3669C84.8357 16.3669 84.7869 16.3669 84.7869 16.5379C84.7869 16.88 84.7869 17.393 84.7869 17.7595C84.7869 17.9061 84.7869 21.1922 84.7869 21.4243C84.7869 21.9618 84.7869 22.5115 84.7869 23.049C84.6722 23.2051 84.593 23.3843 84.5548 23.5742Z" fill="#4A4640"/>
<path d="M107.313 7.4372H107.667C108.18 7.46009 108.676 7.62967 109.096 7.92583C109.498 8.17253 109.847 8.49638 110.122 8.87866C110.284 9.11533 110.427 9.3645 110.55 9.62383C110.694 9.92992 110.82 10.244 110.929 10.5644C110.929 10.5644 111.026 10.8943 111.039 10.9065V11.0775C111.149 11.5295 111.307 12.6411 111.356 13.1053C111.454 14.0459 111.466 14.84 111.478 15.3164V15.6829C111.478 15.9394 111.478 17.3076 111.478 17.4908V17.613C111.478 17.955 111.478 18.8345 111.478 19.4698C111.478 19.7019 111.295 20.8746 111.271 20.9723V21.0578C111.14 21.7078 110.931 22.3395 110.648 22.939C110.308 23.6148 109.804 24.1944 109.182 24.6248C108.642 24.9573 108.02 25.1348 107.386 25.1379C107.048 25.1409 106.712 25.0998 106.384 25.0157C105.895 24.89 105.44 24.6562 105.053 24.3316C104.734 24.0679 104.465 23.7494 104.259 23.391C103.951 22.8103 103.702 22.2006 103.514 21.5709V21.3632C103.514 21.2166 103.44 21.0822 103.416 20.9723C103.33 20.557 103.184 19.4453 103.159 19.1155C103.135 18.7857 103.159 17.1365 103.159 16.88C103.159 16.6235 103.159 16.2204 103.159 15.9394C103.159 15.6584 103.159 15.4263 103.159 15.0721C103.159 14.7178 103.159 13.9971 103.159 13.5084C103.159 13.4107 103.159 13.2641 103.159 13.0809C103.159 12.6289 103.257 12.067 103.306 11.8593C103.416 11.2119 103.538 10.6377 103.624 10.3323C103.799 9.67322 104.13 9.06579 104.589 8.56105C105.041 7.99084 105.682 7.60095 106.397 7.46163C106.602 7.41984 106.81 7.39533 107.02 7.38834L107.313 7.4372ZM108.327 23.3177C108.774 23.0867 109.122 22.7 109.304 22.2305C109.53 21.767 109.702 21.2793 109.817 20.7768V20.7158C109.817 20.5447 109.976 19.6041 109.988 19.4942C109.988 18.92 109.988 18.0283 109.988 17.6862V17.5519C109.988 17.3076 109.988 16.1226 109.988 15.9638C109.988 15.805 109.988 15.6951 109.988 15.4508C109.99 14.757 109.953 14.0637 109.878 13.3741C109.821 12.7711 109.731 12.1717 109.609 11.5784V11.4684C109.448 10.8778 109.21 10.311 108.901 9.78263C108.747 9.575 108.556 9.39703 108.339 9.25735C108.122 9.11611 107.875 9.0282 107.618 9.00082C107.496 9.00082 107.374 9.00082 107.239 9.00082C107.089 8.98807 106.938 8.98807 106.788 9.00082C106.359 9.06108 105.969 9.28418 105.7 9.62383C105.425 9.9387 105.22 10.3096 105.102 10.711C105.102 10.8576 104.967 11.2607 104.821 12.1036C104.821 12.3113 104.723 12.8977 104.686 13.3252C104.686 13.4962 104.686 13.655 104.686 13.765C104.663 14.2329 104.663 14.7018 104.686 15.1698C104.686 15.5485 104.686 15.8294 104.686 16.086C104.686 16.3425 104.686 16.6968 104.686 16.9533C104.686 17.2098 104.686 18.749 104.686 19.0178C104.686 19.2865 104.833 20.3126 104.906 20.6791C104.923 20.7987 104.947 20.9171 104.98 21.0334C104.98 21.1433 104.98 21.2533 105.065 21.3388C105.211 21.8244 105.403 22.2948 105.639 22.7436C105.753 22.9223 105.888 23.0865 106.042 23.2322C106.262 23.4271 106.526 23.5655 106.812 23.6353C107.035 23.6605 107.261 23.6605 107.484 23.6353C107.782 23.6064 108.07 23.5103 108.327 23.3544V23.3177Z" fill="#4A4640"/>
<path d="M116.975 7.46159H117.33C117.847 7.48006 118.349 7.64994 118.771 7.95022C119.166 8.19656 119.51 8.51579 119.785 8.89083C119.949 9.13055 120.092 9.38395 120.212 9.64821C120.367 9.94967 120.494 10.2645 120.591 10.5888C120.591 10.5888 120.701 10.9064 120.701 10.9309C120.704 10.9878 120.704 11.0449 120.701 11.1019C120.811 11.5417 120.97 12.6655 121.019 13.1297C121.116 14.0581 121.129 14.8644 121.141 15.3408C121.132 15.4587 121.132 15.5771 121.141 15.695C121.141 15.9638 121.141 17.3197 121.141 17.503V17.6373C121.141 17.9794 121.141 18.8589 121.068 19.4941C121.068 19.714 120.884 20.8867 120.86 20.9967V21.0822C120.727 21.7317 120.518 22.3632 120.237 22.9634C119.897 23.6395 119.393 24.2192 118.771 24.6492C118.227 24.9724 117.608 25.1492 116.975 25.1623C116.638 25.1532 116.303 25.1123 115.974 25.0401C115.486 24.9135 115.034 24.6751 114.654 24.3438C114.339 24.082 114.07 23.768 113.86 23.4154C113.551 22.8367 113.306 22.2265 113.127 21.5953V21.3876C113.082 21.2556 113.046 21.121 113.017 20.9845C112.944 20.5691 112.785 19.4697 112.761 19.1277C112.736 18.7856 112.761 17.1487 112.761 16.9044C112.761 16.6601 112.761 16.2447 112.761 15.9638C112.761 15.6828 112.761 15.4507 112.761 15.0965C112.756 14.5743 112.78 14.0522 112.834 13.5328C112.834 13.4351 112.834 13.2763 112.834 13.1053C112.834 12.6533 112.944 12.0792 112.993 11.8104C113.103 11.1752 113.213 10.5888 113.311 10.2957C113.476 9.67437 113.786 9.10093 114.215 8.62209C114.675 8.0494 115.325 7.65961 116.047 7.52267C116.252 7.48088 116.461 7.45636 116.67 7.44937L116.975 7.46159ZM118.001 23.3421C118.444 23.1078 118.786 22.7217 118.966 22.2549C119.194 21.7837 119.366 21.2877 119.48 20.7768V20.7035C119.48 20.5325 119.638 19.6041 119.651 19.4819C119.651 18.9078 119.651 18.0038 119.651 17.674V17.5274C119.651 17.2953 119.651 16.1104 119.651 15.9516C119.651 15.7928 119.651 15.6828 119.651 15.4263C119.651 14.9743 119.651 14.2047 119.541 13.3496C119.48 12.7504 119.386 12.155 119.26 11.5661C119.26 11.5661 119.26 11.4806 119.26 11.4439C119.095 10.8642 118.861 10.3063 118.563 9.78259C118.409 9.57496 118.219 9.39699 118.001 9.25731C117.782 9.12353 117.536 9.04008 117.281 9.01299H116.462C116.034 9.08573 115.645 9.30618 115.363 9.636C115.088 9.95444 114.888 10.33 114.776 10.7354C114.651 11.1892 114.553 11.6502 114.483 12.1158C114.483 12.3357 114.386 12.922 114.349 13.3374C114.349 13.5206 114.349 13.6794 114.349 13.7772C114.349 14.2047 114.349 14.8033 114.349 15.1942C114.349 15.5851 114.349 15.8538 114.349 16.1104C114.349 16.3669 114.349 16.7212 114.349 16.9777C114.349 17.2342 114.349 18.7734 114.349 19.0422C114.349 19.3109 114.496 20.337 114.569 20.7035C114.569 20.7035 114.569 20.9723 114.642 21.0455C114.715 21.1188 114.642 21.2776 114.728 21.3509C114.878 21.8408 115.074 22.3152 115.314 22.768C115.42 22.9488 115.552 23.1133 115.705 23.2566C115.928 23.447 116.191 23.5848 116.474 23.6597C116.698 23.6844 116.923 23.6844 117.146 23.6597C117.448 23.6264 117.739 23.5307 118.001 23.3788V23.3421Z" fill="#4A4640"/>
<path d="M98.4197 16.1837C98.2853 16.1837 98.2487 16.1837 98.2487 16.2692C98.2487 16.5746 98.2487 16.8555 98.2487 17.1609C98.2487 17.7717 98.2487 18.1626 98.2487 18.7734C98.2487 19.3842 98.2487 19.6285 98.2487 20.5081C98.2487 20.789 98.322 22.3404 98.2487 22.6947C98.1754 23.0489 98.2487 23.3055 98.2487 23.5742C98.2487 23.843 98.2487 24.1972 98.2487 24.3683C98.2487 24.5393 98.322 24.7592 98.2487 25.0157C98.1754 25.2722 98.1388 25.0157 98.0288 25.1256C97.9189 25.2356 96.966 25.1256 96.905 25.1256C96.8439 25.1256 96.905 24.3438 96.905 24.1484C96.905 23.9529 96.905 23.3666 96.905 22.658C96.905 22.5481 96.905 22.2794 96.905 21.7907C96.905 21.522 96.905 21.0089 96.905 20.5691C96.905 20.1294 96.905 20.0072 96.905 19.3476C96.905 19.201 96.905 18.126 96.905 17.9305C96.905 17.4419 96.905 16.9533 96.905 16.4646C96.9232 16.2044 96.9232 15.9431 96.905 15.6828V14.2414C96.8864 13.924 96.8864 13.6059 96.905 13.2885C96.9227 12.9793 96.9227 12.6693 96.905 12.3601C96.9235 12.1692 96.9235 11.9769 96.905 11.786C96.905 11.1996 96.8317 9.92919 96.8317 9.89254C96.905 9.50163 96.8317 9.09851 96.9294 8.67096C96.9633 8.39148 97.0769 8.12766 97.2567 7.91104C97.4365 7.69441 97.6748 7.53414 97.9433 7.44938C98.3175 7.36689 98.7052 7.36689 99.0794 7.44938C99.5632 7.5501 100.013 7.77298 100.386 8.09682C100.582 8.28005 100.729 8.48772 100.924 8.67096C101.124 8.91363 101.277 9.1911 101.376 9.48942C101.449 9.66044 101.486 9.83146 101.547 10.0147C101.67 10.4101 101.732 10.8221 101.73 11.2363C101.742 11.737 101.672 12.2363 101.523 12.7144C101.396 13.2104 101.194 13.6842 100.924 14.1192L100.741 14.4002C100.509 14.6567 100.496 14.8155 100.252 15.0476C100.008 15.2797 99.6902 15.5851 99.7268 15.634C99.849 16.2325 100.154 16.6357 100.301 17.2464C100.448 17.8572 100.716 18.5413 100.887 19.201C101.058 19.8606 101.18 20.1172 101.4 20.9112C101.56 21.405 101.694 21.9064 101.803 22.4137C101.962 23.0001 102.072 23.3666 102.255 23.9407C102.368 24.2114 102.422 24.5028 102.414 24.7958C102.414 25.0646 101.975 25.0035 101.657 25.0035C101.467 25.0392 101.272 25.0392 101.083 25.0035C100.848 24.5523 100.692 24.0651 100.619 23.562C100.619 23.562 100.057 21.3387 99.8612 20.6913C99.6657 20.0439 99.287 18.6757 99.1527 18.1626C98.9937 17.5927 98.7978 17.0336 98.5663 16.4891C98.493 16.4158 98.493 16.3425 98.4197 16.1837ZM98.2487 13.7405C98.2309 14.0456 98.2309 14.3516 98.2487 14.6567C98.2487 14.7911 98.3098 14.8277 98.4319 14.7789C98.6399 14.6936 98.8183 14.5492 98.945 14.3635C99.2591 13.9569 99.5371 13.5237 99.7757 13.0686C99.9997 12.6937 100.149 12.2788 100.215 11.8471C100.296 11.4438 100.296 11.0287 100.215 10.6255C100.156 10.3287 100.031 10.0491 99.849 9.80703C99.7121 9.62007 99.5473 9.45526 99.3603 9.3184C99.178 9.19023 98.9602 9.12192 98.7373 9.12294C98.6518 9.12294 98.3464 9.12294 98.2976 9.19624C98.2677 9.37006 98.2677 9.5477 98.2976 9.72152C98.2976 10.0025 98.2976 10.369 98.2976 10.6621C98.3603 11.4753 98.3603 12.2921 98.2976 13.1053C98.2697 13.3323 98.2534 13.5607 98.2487 13.7894V13.7405Z" fill="#4A4640"/>
<path d="M93.0569 11.6761C93.0569 12.4701 92.9348 19.0055 92.947 19.0055C92.9592 19.0055 92.947 19.995 92.947 20.0317C92.947 20.0683 92.947 20.789 92.947 21.803V23.8919C92.947 23.9529 92.947 24.2583 92.947 24.6859C92.9534 24.7917 92.9534 24.8977 92.947 25.0035C92.9592 25.0349 92.9592 25.0698 92.947 25.1012C92.947 25.1012 92.8126 25.1012 92.6416 25.1012H92.1652C91.6399 25.1012 91.591 25.1012 91.591 25.1012V24.2217C91.591 23.8063 91.591 23.1589 91.591 22.768C91.591 22.3771 91.591 21.7419 91.591 21.3265C91.591 21.3265 91.6765 20.1905 91.6887 19.6163C91.6887 19.5064 91.6887 19.3842 91.6887 19.2621C91.6887 18.7001 91.6887 18.1504 91.6887 17.5885C91.6887 17.0266 91.6887 16.7334 91.6887 16.257C91.6887 15.7806 91.6887 15.3897 91.6887 14.9621C91.6887 14.8033 91.6887 14.6445 91.6887 14.4979C91.6887 14.0093 91.6887 13.3863 91.6887 12.9099C91.6887 12.7266 91.6887 12.5434 91.6887 12.3602C91.6887 11.9082 91.6887 11.4562 91.6887 11.0042C91.6887 10.9187 91.6887 10.54 91.6887 10.3201C91.7194 9.9135 91.7194 9.50515 91.6887 9.09854C91.4703 9.0636 91.2476 9.0636 91.0291 9.09854C90.6626 9.09854 90.5038 9.09854 89.9663 9.09854C89.6951 9.14071 89.4191 9.14071 89.1479 9.09854C89.1272 8.85058 89.1272 8.60133 89.1479 8.35337C89.104 8.11513 89.104 7.87088 89.1479 7.63264C89.3662 7.59596 89.5892 7.59596 89.8075 7.63264C90.455 7.63264 90.7726 7.63264 91.3467 7.63264C91.9209 7.63264 92.4461 7.63264 93.0569 7.63264C93.6677 7.63264 94.1075 7.63264 94.5717 7.63264C94.7183 7.63264 95.1458 7.63264 95.72 7.63264C96.0742 7.63264 95.891 7.77923 95.9398 8.08462C95.9971 8.39965 95.9971 8.72243 95.9398 9.03746C95.7163 9.11498 95.4798 9.14817 95.2435 9.13518C94.8038 9.13518 94.6694 9.13518 93.9487 9.13518H93.2646C93.2646 9.40393 93.2646 10.0269 93.2646 10.6255C93.0325 10.54 93.0569 11.6761 93.0569 11.6761Z" fill="#4A4640"/>
<path d="M125.16 11.6761C125.16 12.4701 125.038 19.0055 125.05 19.0055C125.062 19.0055 125.05 19.995 125.05 20.0317C125.05 20.0683 125.05 20.789 125.05 21.803V23.8919C125.05 23.9529 125.05 24.2583 125.05 24.6859C125.057 24.7917 125.057 24.8977 125.05 25.0035C125.062 25.0349 125.062 25.0698 125.05 25.1012C125.05 25.1012 124.916 25.1012 124.745 25.1012H124.268C123.743 25.1012 123.694 25.1012 123.694 25.1012V22.7314C123.694 22.316 123.694 21.7052 123.694 21.2899C123.694 21.2899 123.78 20.1538 123.792 19.5797C123.792 19.4697 123.792 19.3476 123.792 19.2254C123.792 18.6635 123.792 18.1138 123.792 17.5519C123.792 16.9899 123.792 16.6968 123.792 16.2203C123.792 15.7439 123.792 15.353 123.792 14.9255C123.792 14.7667 123.792 14.6079 123.792 14.4613C123.792 13.9726 123.792 13.3496 123.792 12.8732C123.792 12.69 123.792 12.5067 123.792 12.3235C123.792 11.8715 123.792 11.4195 123.792 10.9675C123.792 10.882 123.792 10.5033 123.792 10.2835C123.823 9.87684 123.823 9.4685 123.792 9.06188C123.573 9.02695 123.351 9.02695 123.132 9.06188C122.766 9.06188 122.607 9.06188 122.069 9.06188C121.798 9.10406 121.522 9.10406 121.251 9.06188C121.23 8.81393 121.23 8.56468 121.251 8.31672C121.207 8.07848 121.207 7.83423 121.251 7.59599C121.469 7.55931 121.692 7.55931 121.911 7.59599C122.558 7.59599 122.876 7.59599 123.45 7.59599C124.024 7.59599 124.549 7.59599 125.16 7.59599C125.771 7.59599 126.211 7.59599 126.675 7.59599C126.821 7.59599 127.261 7.59599 127.823 7.59599C128.177 7.59599 127.994 7.74258 128.043 8.04797C128.1 8.363 128.1 8.68578 128.043 9.0008C127.819 9.07833 127.583 9.11152 127.347 9.09853C126.907 9.09853 126.773 9.09853 126.052 9.09853H125.368C125.368 9.36728 125.368 9.99028 125.368 10.5889C125.148 10.54 125.16 11.6761 125.16 11.6761Z" fill="#4A4640"/>
</svg>
