<svg xmlns="http://www.w3.org/2000/svg" xmlns:xlink="http://www.w3.org/1999/xlink" width="58" height="58" viewBox="0 0 58 58"><defs><path id="8dlma" d="M633.11 2280.53c-.5-.78-1.08-1.5-1.75-2.17l-4.88-4.87c-.67-.67-1.4-1.26-2.17-1.75.7-1.58 2.08-4.92 2.64-7.9a1.2 1.2 0 0 1 2.14-.47c1.06 1.45 2.1 3.31 1.8 4.71l7.22-2.9a1.2 1.2 0 0 1 1.56 1.56l-2.9 7.22c1.4-.31 3.26.73 4.71 1.79a1.2 1.2 0 0 1-.48 2.15 38.94 38.94 0 0 0-7.89 2.63zm-3.94 15.17l-10.28-5.89 5.16 9.01-18.8 10.57-6.75-3.64 3.08 5.7-9.16 5.14c-.5.28-1.02.41-1.51.41-2.15 0-3.9-2.39-2.66-4.59l11.77-20.94 8.35 5.06-5.81-9.57 5.35-9.51a10.7 10.7 0 0 1 16.95-2.34l4.87 4.88a10.75 10.75 0 0 1-.56 15.7z"/></defs><g><g transform="translate(-586 -2261)"><use fill="#262626" xlink:href="#8dlma"/></g></g></svg>