<svg xmlns="http://www.w3.org/2000/svg" xmlns:xlink="http://www.w3.org/1999/xlink" width="49" height="46" viewBox="0 0 49 46"><defs><path id="2bv3a" d="M637.56 1915.28l-3.76 15.68a1.66 1.66 0 0 1-1.61 1.27h-20.3c-.72 0-1.36-.47-1.58-1.15l-5-15.61a2.67 2.67 0 0 1 2.54-3.48h27.12a2.67 2.67 0 0 1 2.6 3.29zm1.29 22.33a2.43 2.43 0 0 1-2.43 2.43h-26.18a6.97 6.97 0 0 1-6.65-4.84l-7.21-22.36a.24.24 0 0 0-.23-.16h-1.57a2.43 2.43 0 1 1 0-4.86h1.57a5.08 5.08 0 0 1 4.85 3.53l7.2 22.36c.3.88 1.1 1.47 2.04 1.47h26.18a2.43 2.43 0 0 1 2.43 2.43zm-23.02 9.1a3.87 3.87 0 1 1-7.74 0 3.87 3.87 0 0 1 7.74 0zm20.33 0a3.87 3.87 0 1 1-7.74 0 3.87 3.87 0 0 1 7.74 0z"/></defs><g><g transform="translate(-591 -1906)"><use fill="#262626" xlink:href="#2bv3a"/></g></g></svg>