<svg xmlns="http://www.w3.org/2000/svg" xmlns:xlink="http://www.w3.org/1999/xlink" width="57" height="51" viewBox="0 0 57 51"><defs><path id="ud7wa" d="M616.57 2044.55c-.06.08-.14.13-.2.2.03-.79.05-1.6.02-2.41 0-.72-.1-1.43-.16-2.14-.07-.7-.24-1.38-.35-2.04-.17-.65-.38-1.27-.55-1.86l-.71-1.58-.79-1.23c-.2-.38-.52-.62-.72-.86-.41-.46-.66-.71-.66-.71s.23.27.61.76c.17.25.47.5.64.9l.69 1.25.57 1.6c.13.58.29 1.2.4 1.83.06.65.19 1.32.2 2 .01.69.06 1.38 0 2.08-.02 1-.14 1.97-.28 2.92-.53-.42-2.01-2.1-2.66-2.83a17.08 17.08 0 0 1-2.02-2.81 15.18 15.18 0 0 1-1.42-3.26c-.71-2.24-.75-4.52-.59-6.46.1-1 .17-1.9.14-2.65-.04-.34-.04-.7-.1-.92l-.07-.35.35-.11c.22-.06.6-.18 1.03-.17.88-.03 2.14.26 3.36.92 1.22.66 2.38 1.67 3.3 2.87a12.19 12.19 0 0 1 2.05 4 12.24 12.24 0 0 1-.37 8.24 10.61 10.61 0 0 1-1.71 2.82zm-5.08 2.1c.02-.1.01-.19.02-.28-.38-.47-.77-.94-1.2-1.39-.35-.4-.76-.76-1.15-1.13-.39-.37-.83-.67-1.22-1-.42-.28-.84-.53-1.23-.78l-1.2-.55c-.39-.11-.74-.22-1.06-.3-.31-.12-.6-.1-.84-.14l-.73-.08.73.13c.22.06.51.06.8.2.31.1.65.23 1.03.37l1.11.62c.37.27.76.54 1.15.85.36.34.76.66 1.1 1.04.35.39.73.76 1.04 1.18.48.58.9 1.2 1.3 1.8-.51.03-2.2-.2-2.93-.28a12.88 12.88 0 0 1-4.98-1.74 12.75 12.75 0 0 1-3.56-3.4c-.44-.6-.84-1.15-1.24-1.56-.18-.18-.37-.39-.5-.49l-.22-.16.14-.24c.1-.14.25-.4.5-.6a5.35 5.35 0 0 1 2.38-1.16 8.01 8.01 0 0 1 3.3 0 9.26 9.26 0 0 1 5.61 3.47 9 9 0 0 1 1.45 2.66c.3.91.44 1.78.43 2.46l-.01.22c.46.58.87 1.16 1.25 1.72.74-.1 1.5-.17 2.28-.17l.27.02c.11-.5.21-1 .3-1.54.07-.37.33-1.27.5-1.39.1-.08.18-.17.26-.26a37.04 37.04 0 0 1-.3 3.25l.8.06c.42-.65.91-1.34 1.45-2.02 0 .1 0 .18.02.28.04.15-.26.8-.4 1.03-.17.26-.3.52-.45.77 5.32.87 9.7 4.52 11.62 9.4l-1.03-.68c-2.7-1.76-6.03-1.9-9.83-.38-1.32.53-2.62.6-3.9.22-2.4-.73-4.79-.8-7.04-.8-1.5 0-2.74.6-3.6 1.73-.21.28-.33.61-.36.96-1.16-.2-1.83-.32-2.28-.32l-.36-.04c1.73-5.1 6.1-8.99 11.48-10.01l-.3-.52c-.14-.24-.44-.88-.4-1.04zm8.02-2c-.42.46-.81.92-1.19 1.4l-.01-.22c0-.7.13-1.56.42-2.47a9.27 9.27 0 0 1 3.9-4.88 9.21 9.21 0 0 1 3.16-1.25 8.06 8.06 0 0 1 3.3 0c1.03.24 1.9.7 2.38 1.16.25.2.41.46.5.6l.15.25-.22.15c-.13.1-.32.31-.5.49-.4.4-.8.96-1.25 1.57a12.75 12.75 0 0 1-3.55 3.4 13.02 13.02 0 0 1-4.98 1.74c-.74.08-2.42.3-2.94.28.4-.61.82-1.23 1.3-1.8.32-.43.7-.8 1.04-1.18.35-.4.75-.7 1.1-1.05l1.15-.85 1.12-.62 1.02-.37c.3-.14.58-.14.8-.2l.73-.13-.73.08c-.23.04-.52.02-.83.14l-1.07.3-1.19.55c-.39.25-.82.5-1.24.79-.39.32-.83.62-1.22.99-.38.37-.8.73-1.15 1.13zm22.82 28.62l-13.55.03c-2.16-3.71-5.36-5.4-9.58-5.38-2.4.02-4.8-.08-7.2.03a10.7 10.7 0 0 1-5.91-1.26c-.87-.49-1.85-.65-2.81-.87-2.34-.53-4.61-1.23-6.95-1.8-3.28-.82-4.06-1.29-6.48-2.25-.4-.15-.88-.03-1.07-.52-.18-.47-.2-.96.13-1.36a2.4 2.4 0 0 1 2.23-.97c.08 0 .18 0 .24-.04 1.9-1.06 1.89-.34 3.81-.18l5.42.7c.95-.08 8.1 1.66 8.52.84-2.22 0-4.8-1.73-4.48-2.15a2.71 2.71 0 0 1 2.3-1.07c2.2 0 4.38.08 6.55.73 1.62.5 3.3.41 4.99-.26 2.75-1.1 5.71-1.47 8.31.22 3.2 2.1 6.25 4.44 8.57 7.6 2.7 3.66 4 4.5 6.96 7.96z"/></defs><g><g transform="translate(-587 -2024)"><use fill="#262626" xlink:href="#ud7wa"/></g></g></svg>