<svg xmlns="http://www.w3.org/2000/svg" xmlns:xlink="http://www.w3.org/1999/xlink" width="58" height="58" viewBox="0 0 58 58"><defs><path id="r692a" d="M629.08 2179.4c.64.04 1.29.09 1.92.11a18.98 18.98 0 0 1-14.61 8.46c.3-.58.6-1.18.88-1.78 1.5-.18 2.99-.57 4.43-1.17l.04-.08c.05-.18.21-.37.21-.37l-.08-.2.18-.27s.21-.34.34-.45c.13-.1 1.23-1.05 1.47-1.23l1.52-1.17.13-.11c.27-.24.77-.87.95-1.16.08-.14.22-.47.35-.8.76.09 1.52.16 2.27.22zm-2.27-.22zm-16.26 1.57l.01.01v.01c.05.13.03.34.05.44.03.13.21-.03.34-.03.1 0 .13.08.24.15l.13.06c.23.08.28-.08.28-.08l.27.32.2.28-.2.5-.18.19s.03-.24 0-.43c-.03-.18-.19.09-.19.09l-.15.5.57.55.17.16.38.34.02.07.22.62-.03.2.13.35s-.17.07-.32.1a.68.68 0 0 1-.15.03c-.08 0-.17.1-.25.18-.08.1-.14.21-.14.21l.14.24c.06.08.12.16.2.21l.1.07.08.02-.02.03-.07.13c-.23.4-.52.88-.85 1.4a19.14 19.14 0 0 1-5.49-1.98c.05 3.44.7 5.68 1.96 6.01 2.38.64 6.24-5.72 9.43-15.03-1.34-.3-2.7-.63-4.08-1-14.6-3.93-25.64-10.14-24.64-13.87.53-2 4.37-2.88 10.06-2.68l-.19.34a18.98 18.98 0 0 1 16.67-9.67h-.35c2.67-5.04 5.36-7.93 7.34-7.4 3.72 1 3.57 13.68-.34 28.32-.37 1.39-.76 2.74-1.17 4.06 9.64 1.88 17.06 1.71 17.7-.68.35-1.26-1.26-2.93-4.21-4.7v-.02c-.05 1.97-.4 3.92-1.04 5.77a29.49 29.49 0 0 1-3.95-.05c.09-.31.17-.54.18-.67.03-.16.12-.4.12-.4l-.59-.14-.07-.38-.24-.05-.23.44s-.18.27-.38.38c-.2.1-.47.13-.47.13l.06-.31c-.1-.05-.34.04-.34.04l-.02-.3s-.13-.29-.25-.3c-.1-.03-.3-.28-.3-.28s-.06-.1-.13-.27l-.02-.02.04-.16.39-.44c.17-.21.23.2.41.36.18.15.12.39.12.39s.12.06.27.06c.15 0 .21.12.21.12l.3.11.3-.33s.06-.2.27-.2c.2 0 .03.26.03.42 0 .15.15 0 .57-.18.42-.18.23-.15.62-.37.4-.2.19-.14.33-.26.16-.12.27-.24.27-.24l.33.21.36-.06.36-.21v.27s-.24.3-.09.5c.15.22.18.16.1.43-.1.27-.04.27 0 .42l.02.19a17.4 17.4 0 0 0-6.13-19l.12-1.99a19.03 19.03 0 0 1 8.47 15.89v-.25c5.01 2.68 7.9 5.37 7.37 7.36-.84 3.16-10.02 3.54-21.66 1.2-3.81 11.28-8.72 19.06-11.87 18.21-1.99-.53-2.87-4.39-2.67-10.1l.2.12a18.99 18.99 0 0 1-9.47-15.29 63.96 63.96 0 0 0 8.04 3.52h-.01v.11l-.3.56-.3.18.08.13.06.26h-.16v.58c0 .2.42.29.42.29l-.13.08s.02.13.15.34c.14.21.24.4.3.58.05.18.12.7.12.7l.5.82c.16.23.48.55.6.82.14.26.43.13.97.26.56.13.79.31.79.31s.29.24.47.35c.19.1.37.1.87.1.47 0 .16.03.74.12h.1c.7.11.15.06.81.37l.03.01.22.1a2.17 2.17 0 0 0 .06.02zm-.08-.06c.03 0 .06.03.08.06l-.06-.02c-.04-.03-.07-.05-.02-.04zm14.45-1.53c.05-.02-.07-.13-.23-.25l.7.1.7.09-.02.01c-.29.16-.45.24-.63.24h-.06c-.18 0-.43.02-.62 0-.21-.03.02-.14.16-.2zm-8.42-12.52l-.03-.03s.04 0 .03.03zm6.49 4.11s-.06.38-.06.53c0 .16.12.22.12.5 0 .14-.05.26-.1.34a3.8 3.8 0 0 0-.1-.02s-.13.23-.17.43a.4.4 0 0 1-.2.27l-.28-.01.52-1.86.03-.15h.04zm-.9 2.95c.04.18.04.27.04.27l-.05.12-.08-.21-.13.02.09-.28c.06.02.12.05.13.08zm2.07-5.77c.1.09.24.22.24.53 0 .31-.01.13-.06.25-.05.12-.1.08-.38.08s-.02 0-.4-.02c-.26 0-.21-.02-.28-.06l.28-1.13.04.02c.3.13.46.25.56.33zm-13.6 12.84c.04.01.05.02 0 0zm8.18-25.55l.29-.15c.1-.04 0-.05-.1-.12-.1-.06-.21.06-.21.06s-.06.05-.1.17l-.02.03c-.05.06-.11-.1-.12-.19-.02-.1-.36-.03-.35-.03l.08.17.03.23c0 .07 0 .19.05.27.05.08.2.2.2.2l.1-.06.05-.03.16-.27.13-.12zm-2.14-1.19s.02-.19.13-.17c.1.02.2-.25.2-.25s-.08-.17-.18-.17l-.34.03-.06-.13s-.13-.02-.3.04c-.17.06-.2-.08-.2-.08l-.03-.26-.23.07-.17-.15s-.06-.13.04-.13l.25.02.21-.15-.08-.16.14-.17s-.29-.15-.35-.04c-.07.1-.3.19-.3.19s.02-.07-.1-.23c-.13-.17.06-.26-.21-.2a.98.98 0 0 0-.37.18l-.1.08s-.3.06-.3.17c-.03.1.35.16.35.16l.05-.05c.05-.06.15-.15.22-.07.1.1.19.23.19.23l-.4.21-.01-.01-.2-.16h-.4l-.19.09-.38.04s.07.19.07.3c0 .1-.17.2-.17.2l-.23-.01h-.02l-.24.16s-.25.02-.36.1a.1.1 0 0 1-.05.03c-.1.03-.2-.04-.2.1 0 .17.02.25-.1.28l-.1.02-.3.06s-.13.06-.23.17c-.1.1-.34.17-.34.17l-.03-.01-.39-.08-.54.23-.02.04-.11.26-.36.04s-.3.15-.32.25c0 .06-.06.1-.11.14a.53.53 0 0 1-.1.06s-.2.08-.31.16c-.1.08-.23.25-.23.25l-.1.2.16.2-.34.05.04.16c.17.17.28.26.38.17.1-.08.04-.15.17-.19l.32-.11.2-.08c.1-.04.28-.19.4-.19.13 0 .25-.02.25-.02l.05-.04.29-.23.34.15.27-.04s0 .07.05.12a.2.2 0 0 0 .08.04c.12.04.31.04.31.04s.1-.14.26-.14h.37l.04-.2.24.12.04.01.19.15s-.09.02.12.1c.13.06.25.04.32.02l.08-.04.36.09s.02-.34-.08-.34c-.11 0-.32-.1-.32-.1l.23-.09.26-.04.06.28.4-.13-.06-.23.02-.36.38.06.02.25s.07.04.15.05c.1.03.18.03.18-.05 0-.15-.08-.25.03-.25.1 0 .31-.06.31-.06l.1-.15.15-.34.17.25.23-.15-.04-.2.5-.24s.3-.04.43-.04c.12 0 .16-.04.16-.04s.09-.17-.04-.17c-.12 0-.22-.1-.22-.1zm-5.03 8.17l-.2.1.48.23.23.01.18.01s.13-.2.15-.42c.01-.1.04-.14.07-.17l.2-.12c.17-.13.13-.17.1-.3-.04-.1-.2-.08-.3-.07h-.05l-.35.18-.03.02-.16-.22-.24.07-.22.23.14.02s.06-.02.23 0c.17.03-.04.17-.04.17l-.34.09zm-.14-.45c-.01 0-.01 0 0 0zm.94-4.49l-.29.02s-.06.3 0 .48l.02.03a.5.5 0 0 0 .38.27c.09.01.18 0 .3-.02l.25-.05H613h.03l.13-.05.16-.07s.27-.16.27-.31-.23-.1-.42-.1h-.01c-.18 0-.16-.03-.24-.24-.09-.21-.09.13-.09.13s-.08-.02-.16-.21c-.09-.2-.1-.34-.1-.34l-.08.04-.24.13.06.12zm-.21 6.05l.21.28c.05.07.09.05.11 0 .04-.07.06-.17.12-.17.1 0 .02.17.15.15.13-.02.4-.02.4-.02l.19.2s.2-.1.23-.2c.02-.1.02-.1.19-.1s.1-.03.31-.2c.22-.16-.06-.31-.23-.4-.17-.08-.02-.23-.02-.23l.02-.3-.02-.25c-.02-.15-.06-.25-.09-.4-.02-.15-.16-.1-.16-.1v-.2s.31 0 .42-.04c.1-.04 0-.25 0-.25l-.44-.17c-.2-.06-.07-.1.25-.12.31-.02.04-.17.04-.17l-.25-.15s-.13.17-.34.25a.28.28 0 0 0-.1.06c-.07.08-.02.16-.09.26v.17l.1.15.05.1-.06.18-.07.14c-.08.12.05.27.05.27s0 .28-.05.43c-.04.14-.36-.13-.36-.13l-.06.36h-.3l.05.19.07.05.12.1.12.19-.24-.1-.11-.03zm-3.3-9.51l-.36.38s.31.06.42.04c.06-.01.23-.13.41-.25l.35-.23c.23-.15.32-.1.32-.1l.08.16-.5.3.59-.09.07-.06.22-.21.24-.28.35.02.14-.05.3-.11s.26-.17.36-.36c.08-.15.14-.07.24-.04h.1c.17-.04.09-.2.09-.34 0-.07.1-.08.22-.08s.26.02.32-.03c.13-.09-.1-.25-.27-.3h-.05c-.14-.04-.2-.06-.22-.19-.02-.07-.1-.1-.19-.1a.5.5 0 0 0-.23.08c-.13.09-.38.1-.3-.06.01-.03.03-.03.04-.05-.65.13-1.3.31-1.95.53h.3c.13 0-.12.15-.12.15s-.38.13-.48.22h-.02c-.09.1-.04.23-.04.23h.04c.07 0 .2 0 .27-.02.1-.03.19-.07.46-.24l.18-.1c.08-.03.08-.01.18-.07.14-.08.04.24.04.24l.4-.15.32-.02h.12l.12-.24-.24-.05-.13-.03.12-.13h.01c.06 0 .42 0 .54.03.13.01 0 .16 0 .16l-.04.17-.15.27s-.19.03-.33.03h-.02c-.14 0-.3.16-.3.16l-.3.21h-.42l-.06.24-.34-.04s-.04-.1-.06-.26c-.02-.15-.17 0-.17 0s-.06.25-.2.36a.2.2 0 0 1-.1.04c-.2.05-.37.26-.37.26zm4.58-2.23l-.54.05.1.03c.13.02.02.06.02.16 0 .07.03.1.14.12l.22.03c.3.04.1-.08.07-.33v-.06zm-1.13.24l.04-.1-.1.01c.05.04.06.1.06.1zm2.4-.33a.31.31 0 0 0-.02.17c.02.19.06 0 .19-.04.07-.03.09-.06.1-.13h-.26zm-12.32 5.6h.26l.34-.2.33.1-.19.09s-.18.27-.23.4c-.04.12.5.1.5.1s.15-.4.15-.57c0-.16.45-.27.45-.27l.12-.34.21.15s.13-.23.1-.34c-.02-.1-.4-.13-.4-.13l.38-.18.38.1-.08.74h.37l.09.13s-.53.29-.63.29c-.1 0-.34.28-.34.28l-.2.23s.08.13.24.17c.17.04.17.14.17.14s.23-.08.23-.2c0-.13-.08-.17-.08-.17l.31-.36c.13-.15.8-.45.93-.6.12-.14.04-.24.04-.24l.31-.2s.09-.4.13-.5c.04-.1.48-.32.8-.55.31-.23.36-.25.77-.36.43-.1.13-.15.1-.27-.01-.13-.35.16-.35.16l-.5-.15s.2 0 .42-.16c.21-.17.16-.04.31-.1.15-.07.1-.13.1-.13h.24s.19-.2.3-.36c.1-.17.33-.49.33-.49s-.52.3-.63.34c-.1.04-.27-.04-.4-.04s-.31.2-.53.3l-.44.2-.31-.06-.25.1-.61.26s.1-.08.36-.23l.5-.3.4-.1.03-.2-.48.25c-1.54.9-2.9 2-4.05 3.26zm15.83 17.16a99.9 99.9 0 0 0 1.22-4.19c3.4-12.74 3.8-23.7.88-24.49-1.25-.34-2.92 1.27-4.68 4.23h-.06c1.98.05 3.93.4 5.8 1.05.03.6.03 1.17.03 1.62l-.01.84c-.06 1.6-.2 3.24-.42 4.89a1.02 1.02 0 0 0-.24-.06h-.23s-.2-.16-.26-.27c-.07-.12-.2-.21-.47-.3-.26-.1-.24.1-.24.1s-.25.17-.56.14c-.3-.03-.38.3-.38.33l-.23.2s-.12.2-.26.2a.86.86 0 0 0-.24.04s-.07.26-.07.4-.14.16-.14.16-.18.03-.3.08-.24.13-.36.2c-.13.06-.07.12-.32.26l-.33.19-.33.07.17.17-.26.05s-.02.16.02.28c.03.12.3.14.3.14s-.17.14-.39.23c-.2.09-.2.12-.19.21.02.09.14.28.49.37.35.09.1-.02.26-.1.16-.1.33-.15.33-.15s.21.35.21.5c0 .16-.05.46-.03.57.02.1.19-.04.19-.04l-.16.18.04.4c0 .09.3.03.3-.05 0-.09.18-.23.44-.25.26-.01.23-.05.23-.26 0-.2.05-.49.05-.49l.3-.08s.17-.13.28-.24a.56.56 0 0 0 .07-.08c.03-.05-.01-.11-.07-.16l-.16-.13c-.1-.09-.12-.37-.12-.54 0-.18 0-.1.02-.23.01-.11.14-.12.26-.15h.03c.12-.04.28-.25.5-.36.23-.1-.12-.12-.12-.12l.07-.35c.04-.16.49.05.49.05l.17.21-.2.16-.25.36-.34.46.28.73s.24.12.4.1c.16-.02.33-.1.43-.2.04-.03.27-.09.5-.14l-.07.49c-.08.03-.17-.04-.37-.04-.27 0-.34.13-.59.15-.25.03-.1.2-.1.32 0 .13.35.28.35.28l-.27.17s-.13-.27-.37-.25c-.24.03-.15.35-.3.47s.1.5.1.5-.18.02-.34.11l-.06.03c-.17.12-.22.03-.22.03s-.1-.15-.22-.15-.3.2-.42.24c-.13.05-.55 0-.55 0l-.27-.3-.22.23s-.2-.05-.32-.2c-.12-.15 0-.12-.03-.24-.02-.13-.07-.13-.07-.13l.12-.2.32-.2s.07-.43-.07-.63c-.15-.2-.15.2-.15.2l-.5.32.03.66-.1.3-.2-.05-.12.15s-.12-.07-.32-.15c-.2-.07-.54.25-.54.25l-.04.1-.08.2-.27-.06-.15.18h-.3c-.13 0-.05.22-.05.22s-.08.1-.18.14l-.04-.06c-.15-.02-.18 0-.27.07a.43.43 0 0 1-.16.07l-.13.02-.13-.32s-.09-.17-.17-.04c-.1.13-.06.22-.06.22l.04.22-.18.02-.04-.02-.09-.02-.3-.19-.05-.03s-.22-.03-.18.1c.03.15.21.33.21.42 0 .01 0 .02.02.03.05.06.3.04.3.15 0 .13-.16.28-.16.28s.13.1.13.27c0 .16-.04.39-.07.5-.04.1-.13.07-.16.18l-.05.08c-.05.1-.13.19-.13.19s-.27.07-.36.03c-.1-.03-.17-.16-.33-.2h-.09c-.06 0-.07.04-.23-.07-.22-.14-.29-.2-.43-.25-.14-.05-.22-.18-.22-.18l-.06-.04a.6.6 0 0 0-.22-.08c-.1 0-.24.16-.24.16s.04.14 0 .32c-.03.18.04.27-.07.34-.1.08-.12.02-.14.17-.02.14.07.07-.07.21-.13.13-.07.13-.17.2l-.03.02c-.15.1-.2.07-.29.22-.1.14-.12.3-.12.43 0 .12.39.57.39.57l.05.02c.07.02.17.06.17.15 0 .13-.15.18 0 .27.14.09.07.1.16.16.04.03.31.09.58.14l.58.11.2-.14h.34l.1-.3.26-.02.02-.3s-.03-.28.05-.28c.05 0 .18-.08.3-.15l.24-.16.16.03c.14.02.33.03.38-.01.1-.07.3-.36.3-.36s-.05-.23 0-.33c.01-.03.03-.05.06-.05.14 0 .49.02.6.13.1.1.37.25.48.23.1-.02.24-.11.35-.19l.04-.03.27-.19v.01s.25.04.33.17c.07.12.1.36.07.5-.04.14.23.27.32.38.09.1.52.68.66.86l.44.5.14.34-.3.22s-.33-.02-.44-.05c-.1-.04-.2.07-.2.07s-.07-.04-.23-.18c-.16-.14-.05.02-.25.13-.2.1.25.27.36.36.1.09.25.25.32.34.08.09.26-.03.26-.18 0-.14.02-.27.02-.27h.32l.2-.23.16-.14.07-.2-.12-.36s.22-.08.3-.08c.1 0 .18.27.18.27l.1.04s0-.22-.06-.3c-.06-.1-.34-.31-.34-.31s-.33-.13-.42-.2c-.1-.07-.3-.45-.41-.64-.1-.2-.04-.22-.06-.31-.01-.1-.2-.2-.27-.32-.07-.13-.05-.3-.05-.3l.34-.22c.07-.04.1-.07.1-.08.07.07.26.29.26.42 0 .16.07.34.1.45.04.1.26.2.55.25.29.05.2.25.2.25s.26.32.3.54c.03.22.03.32.05.6.02.26.15.3.23.55.1.25.13.25.18.45.03.1.04.18.08.27l-.57 2c-.17.15-.29.72-.29.72s-.05.03-.13.05l-.37-.09c-.19-.2-.63-.28-.86-.43-.23-.16-.23-.5-.42-.66-.18-.16-.31-.08-.31-.08s-.52-.1-.63-.23a7.43 7.43 0 0 0-.23-.26l-.11-.14.11-.1a.73.73 0 0 1 .25-.16c.13-.03-.05-.3-.2-.55-.17-.27.41-.35.39-.48-.03-.12-.28-.13-.44-.2h-.01c-.16-.09-.52 0-.52 0l-.5-.1s-.16.04-.3.1c-.04.01-.1 0-.16-.03a.64.64 0 0 1-.3-.3c-.07-.14-.22-.11-.37-.12a.47.47 0 0 1-.2-.06.33.33 0 0 0-.2-.06c-.11 0-.22.07-.36.09-.17.02-.4.08-.55.1a.4.4 0 0 1-.08 0c-.13 0-.29.1-.47.22-.18.1-.24-.3-.24-.3l-.15-.01a2.6 2.6 0 0 1-.48-.14c-.39-.16-.2-.4-.2-.4l-.23.2-.17.14c-.26.24-.34.35-.58.32-.23-.03-.36.08-.52.16-.14.07-.47.63-.51.72a63.13 63.13 0 0 1-9.57-4.13c-.42-.24-.97-.56-1.55-.94a19.16 19.16 0 0 1 1.97-5.5c-3.44.04-5.67.69-6 1.95-.78 2.92 8.89 8.06 21.6 11.48 1.44.37 2.85.71 4.23 1.02zm-19.8-14.53l-.03.07.03-.07zm-.03.07zm15.97 9.08c-.09.03-.09.23-.09.23s.07.08.16.1c.06.01.13 0 .22-.01l.15-.04c.17-.05.07-.14.1-.26.04-.13.04-.29.11-.41s-.14-.21-.14-.21l-.22.32-.01.01a.81.81 0 0 1-.28.27zm.29-.95c.1-.01.3-.07.34-.18l.1-.23c.05-.16-.15.05-.15.05l-.23.14-.06.14-.04.1.04-.02z"/></defs><g><g transform="translate(-586 -2140)"><use fill="#262626" xlink:href="#r692a"/></g></g></svg>